<svg width="85" height="96" viewBox="0 0 85 96" fill="none" xmlns="http://www.w3.org/2000/svg">
<path d="M55.8749 18.2201C57.6478 16.8167 57.9469 14.242 56.5436 12.4694C55.1402 10.6968 52.5655 10.3974 50.7932 11.8008L55.8749 18.2201ZM39.7619 20.5341C37.9891 21.9375 37.6899 24.5122 39.0933 26.2848C40.4966 28.0574 43.0713 28.3568 44.8436 26.9534L39.7619 20.5341ZM39.7619 26.9534C41.5342 28.3568 44.1089 28.0574 45.5123 26.2848C46.9156 24.5122 46.6165 21.9375 44.8436 20.5341L39.7619 26.9534ZM33.8123 11.8008C32.04 10.3974 29.4652 10.6968 28.0618 12.4694C26.6584 14.242 26.9578 16.8167 28.7305 18.2201L33.8123 11.8008ZM38.209 23.7437C38.209 26.0046 40.0419 27.8375 42.3028 27.8375C44.5636 27.8375 46.3965 26.0046 46.3965 23.7437H38.209ZM46.3965 4.09375C46.3965 1.83285 44.5636 0 42.3028 0C40.0419 0 38.209 1.83285 38.209 4.09375H46.3965ZM46.3965 23.7437C46.3965 21.4829 44.5636 19.65 42.3028 19.65C40.0419 19.65 38.209 21.4829 38.209 23.7437H46.3965ZM38.209 71.7771C38.209 74.0379 40.0419 75.8708 42.3028 75.8708C44.5636 75.8708 46.3965 74.0379 46.3965 71.7771H38.209ZM28.7305 77.3009C26.9578 78.7043 26.6584 81.2789 28.0618 83.0513C29.4652 84.8241 32.04 85.1233 33.8123 83.7199L28.7305 77.3009ZM44.8436 74.9866C46.6165 73.5833 46.9156 71.0086 45.5123 69.2362C44.1089 67.4634 41.5342 67.1643 39.7619 68.5676L44.8436 74.9866ZM44.8436 68.5676C43.0713 67.1643 40.4966 67.4634 39.0933 69.2362C37.6899 71.0086 37.9891 73.5833 39.7619 74.9866L44.8436 68.5676ZM50.7932 83.7199C52.5655 85.1233 55.1402 84.8241 56.5436 83.0513C57.9469 81.2789 57.6478 78.7043 55.8749 77.3009L50.7932 83.7199ZM46.3965 71.7771C46.3965 69.5162 44.5636 67.6833 42.3028 67.6833C40.0419 67.6833 38.209 69.5162 38.209 71.7771H46.3965ZM38.209 91.4271C38.209 93.6879 40.0419 95.5208 42.3028 95.5208C44.5636 95.5208 46.3965 93.6879 46.3965 91.4271H38.209ZM9.6102 50.8635C7.50148 50.048 5.13093 51.0966 4.31545 53.2051C3.49992 55.3137 4.5483 57.6842 6.65702 58.4997L9.6102 50.8635ZM19.8116 63.5869C21.9203 64.4023 24.2909 63.3538 25.1064 61.2452C25.9219 59.1367 24.8735 56.7661 22.7648 55.9506L19.8116 63.5869ZM25.3342 60.3921C25.6784 58.1575 24.146 56.0669 21.9114 55.7225C19.6768 55.3786 17.5864 56.9108 17.2422 59.1454L25.3342 60.3921ZM15.1134 72.9659C14.7692 75.2006 16.3017 77.2911 18.5363 77.6355C20.7708 77.9794 22.8613 76.4472 23.2055 74.2126L15.1134 72.9659ZM23.3192 63.3232C25.2823 62.2015 25.9643 59.7005 24.8426 57.7377C23.7208 55.7749 21.2201 55.0926 19.2572 56.2143L23.3192 63.3232ZM2.0634 66.0393C0.100362 67.161 -0.581656 69.662 0.540086 71.6248C1.66183 73.5876 4.16251 74.2699 6.12549 73.1482L2.0634 66.0393ZM19.2572 56.2143C17.2941 57.336 16.6121 59.837 17.7338 61.7998C18.8556 63.7626 21.3563 64.4449 23.3192 63.3232L19.2572 56.2143ZM65.3484 39.3065C67.3112 38.1849 67.9935 35.684 66.8718 33.721C65.7501 31.758 63.2491 31.076 61.2863 32.1977L65.3484 39.3065ZM74.9955 44.6574C77.104 45.4728 79.4746 44.4243 80.2901 42.3157C81.1055 40.2072 80.057 37.8366 77.9484 37.0211L74.9955 44.6574ZM64.7938 31.9339C62.6853 31.1184 60.3147 32.1668 59.4993 34.2755C58.6838 36.3842 59.7323 38.7547 61.8409 39.5702L64.7938 31.9339ZM59.2711 35.1288C58.9272 37.3634 60.4594 39.4539 62.694 39.7983C64.9287 40.1422 67.0192 38.6101 67.3636 36.3753L59.2711 35.1288ZM69.4924 22.5548C69.8363 20.3202 68.3041 18.2297 66.0695 17.8855C63.8348 17.5413 61.7443 19.0738 61.3999 21.3084L69.4924 22.5548ZM61.2863 32.1977C59.3235 33.3194 58.6412 35.8201 59.7629 37.7831C60.8846 39.7459 63.3856 40.4282 65.3484 39.3065L61.2863 32.1977ZM82.5422 29.4814C84.505 28.3597 85.1873 25.859 84.0656 23.896C82.9439 21.933 80.4429 21.251 78.4801 22.3727L82.5422 29.4814ZM6.65702 37.0211C4.5483 37.8366 3.49992 40.2072 4.31545 42.3157C5.13093 44.4243 7.50148 45.4728 9.6102 44.6574L6.65702 37.0211ZM22.7648 39.5702C24.8735 38.7547 25.9219 36.3842 25.1064 34.2755C24.2909 32.1668 21.9203 31.1184 19.8116 31.9339L22.7648 39.5702ZM17.2422 36.3753C17.5864 38.6101 19.6768 40.1422 21.9114 39.7983C24.146 39.4539 25.6784 37.3634 25.3342 35.1288L17.2422 36.3753ZM23.2055 21.3084C22.8613 19.0738 20.7708 17.5413 18.5363 17.8855C16.3017 18.2297 14.7692 20.3202 15.1134 22.5548L23.2055 21.3084ZM19.2572 39.3065C21.2201 40.4282 23.7208 39.7459 24.8426 37.7831C25.9643 35.8201 25.2823 33.3194 23.3192 32.1977L19.2572 39.3065ZM6.12549 22.3727C4.16251 21.251 1.66183 21.933 0.540086 23.896C-0.581656 25.859 0.100362 28.3597 2.0634 29.4814L6.12549 22.3727ZM23.3192 32.1977C21.3563 31.076 18.8556 31.758 17.7338 33.721C16.6121 35.684 17.2941 38.1849 19.2572 39.3065L23.3192 32.1977ZM61.2863 63.3232C63.2491 64.4449 65.7501 63.7626 66.8718 61.7998C67.9935 59.837 67.3112 57.336 65.3484 56.2143L61.2863 63.3232ZM77.9484 58.4997C80.057 57.6842 81.1055 55.3137 80.2901 53.2051C79.4746 51.0966 77.104 50.048 74.9955 50.8635L77.9484 58.4997ZM61.8409 55.9506C59.7323 56.7661 58.6838 59.1367 59.4993 61.2452C60.3147 63.3538 62.6853 64.4023 64.7938 63.5869L61.8409 55.9506ZM67.3636 59.1454C67.0192 56.9108 64.9287 55.3786 62.694 55.7225C60.4594 56.0669 58.9272 58.1575 59.2711 60.3921L67.3636 59.1454ZM61.3999 74.2126C61.7443 76.4472 63.8348 77.9794 66.0695 77.6355C68.3041 77.2911 69.8363 75.2006 69.4924 72.9659L61.3999 74.2126ZM65.3484 56.2143C63.3856 55.0926 60.8846 55.7749 59.7629 57.7377C58.6412 59.7005 59.3235 62.2015 61.2863 63.3232L65.3484 56.2143ZM78.4801 73.1482C80.4429 74.2699 82.9439 73.5876 84.0656 71.6248C85.1873 69.662 84.505 67.161 82.5422 66.0393L78.4801 73.1482ZM50.7932 11.8008L39.7619 20.5341L44.8436 26.9534L55.8749 18.2201L50.7932 11.8008ZM44.8436 20.5341L33.8123 11.8008L28.7305 18.2201L39.7619 26.9534L44.8436 20.5341ZM46.3965 23.7437V4.09375H38.209V23.7437H46.3965ZM38.209 23.7437V71.7771H46.3965V23.7437H38.209ZM33.8123 83.7199L44.8436 74.9866L39.7619 68.5676L28.7305 77.3009L33.8123 83.7199ZM39.7619 74.9866L50.7932 83.7199L55.8749 77.3009L44.8436 68.5676L39.7619 74.9866ZM38.209 71.7771V91.4271H46.3965V71.7771H38.209ZM6.65702 58.4997L19.8116 63.5869L22.7648 55.9506L9.6102 50.8635L6.65702 58.4997ZM17.2422 59.1454L15.1134 72.9659L23.2055 74.2126L25.3342 60.3921L17.2422 59.1454ZM19.2572 56.2143L2.0634 66.0393L6.12549 73.1482L23.3192 63.3232L19.2572 56.2143ZM23.3192 63.3232L65.3484 39.3065L61.2863 32.1977L19.2572 56.2143L23.3192 63.3232ZM77.9484 37.0211L64.7938 31.9339L61.8409 39.5702L74.9955 44.6574L77.9484 37.0211ZM67.3636 36.3753L69.4924 22.5548L61.3999 21.3084L59.2711 35.1288L67.3636 36.3753ZM65.3484 39.3065L82.5422 29.4814L78.4801 22.3727L61.2863 32.1977L65.3484 39.3065ZM9.6102 44.6574L22.7648 39.5702L19.8116 31.9339L6.65702 37.0211L9.6102 44.6574ZM25.3342 35.1288L23.2055 21.3084L15.1134 22.5548L17.2422 36.3753L25.3342 35.1288ZM23.3192 32.1977L6.12549 22.3727L2.0634 29.4814L19.2572 39.3065L23.3192 32.1977ZM19.2572 39.3065L61.2863 63.3232L65.3484 56.2143L23.3192 32.1977L19.2572 39.3065ZM74.9955 50.8635L61.8409 55.9506L64.7938 63.5869L77.9484 58.4997L74.9955 50.8635ZM59.2711 60.3921L61.3999 74.2126L69.4924 72.9659L67.3636 59.1454L59.2711 60.3921ZM61.2863 63.3232L78.4801 73.1482L82.5422 66.0393L65.3484 56.2143L61.2863 63.3232Z" fill="#0000FF"/>
</svg>
