<svg width="24" height="24" viewBox="0 0 24 24" fill="none" xmlns="http://www.w3.org/2000/svg">
<mask id="mask0_8749_3128" style="mask-type:alpha" maskUnits="userSpaceOnUse" x="0" y="0" width="24" height="24">
<rect width="24" height="24" fill="#D9D9D9"/>
</mask>
<g mask="url(#mask0_8749_3128)">
<path d="M12.0001 22C10.7501 22 9.57927 21.7625 8.4876 21.2875C7.39593 20.8125 6.44593 20.1708 5.6376 19.3625C4.82926 18.5541 4.1876 17.6041 3.7126 16.5125C3.2376 15.4208 3.0001 14.25 3.0001 13C3.0001 11.75 3.2376 10.5791 3.7126 9.48748C4.1876 8.39581 4.82926 7.44581 5.6376 6.63748C6.44593 5.82914 7.39593 5.18748 8.4876 4.71248C9.57927 4.23748 10.7501 3.99998 12.0001 3.99998C13.2501 3.99998 14.4209 4.23748 15.5126 4.71248C16.6043 5.18748 17.5543 5.82914 18.3626 6.63748C19.1709 7.44581 19.8126 8.39581 20.2876 9.48748C20.7626 10.5791 21.0001 11.75 21.0001 13C21.0001 14.25 20.7626 15.4208 20.2876 16.5125C19.8126 17.6041 19.1709 18.5541 18.3626 19.3625C17.5543 20.1708 16.6043 20.8125 15.5126 21.2875C14.4209 21.7625 13.2501 22 12.0001 22ZM14.8001 17.2L16.2001 15.8L13.0001 12.6V7.99998H11.0001V13.4L14.8001 17.2ZM5.6001 2.34998L7.0001 3.74998L2.7501 7.99998L1.3501 6.59998L5.6001 2.34998ZM18.4001 2.34998L22.6501 6.59998L21.2501 7.99998L17.0001 3.74998L18.4001 2.34998Z" fill="#0000FF"/>
</g>
</svg>
