<svg width="33" height="36" viewBox="0 0 33 36" fill="none" xmlns="http://www.w3.org/2000/svg">
<path d="M24.2692 0.158501C24.184 0.073666 21.1134 0.191988 18.4413 2.77498C15.7692 5.35573 16.1803 8.31601 16.2404 8.39192C16.3006 8.46782 20.0505 8.58614 22.4444 5.58345C24.8383 2.58075 24.3545 0.245568 24.2692 0.158501ZM32.5763 26.3523C32.456 26.138 26.7483 23.5974 27.2797 18.7127C27.8111 13.8258 31.4784 12.4863 31.536 12.3412C31.5937 12.1961 30.0396 10.5775 28.3927 9.7582C27.1835 9.18055 25.8453 8.8496 24.4748 8.7893C24.2041 8.7826 23.2641 8.57722 21.3314 9.04827C20.0581 9.35859 17.1879 10.3632 16.3983 10.4034C15.6062 10.4436 13.25 9.23803 10.7158 8.91879C9.09396 8.63972 7.37439 9.21124 6.14362 9.65104C4.91536 10.0886 2.57916 11.3343 0.944823 14.6451C-0.689516 17.9537 0.165253 23.1956 0.776877 24.8253C1.3885 26.4528 2.34354 29.1206 3.96785 31.0673C5.41168 33.2641 7.32676 34.7889 8.12639 35.3068C8.92601 35.8247 11.182 36.1685 12.7462 35.4564C14.0045 34.7688 16.2755 34.3736 17.1729 34.4026C18.0678 34.4317 19.8325 34.7464 21.6398 35.606C23.0711 36.0458 24.4247 35.8627 25.7808 35.3715C27.1369 34.8782 29.0996 33.0073 31.3906 29.2143C32.2605 27.4507 32.6565 26.4974 32.5763 26.3523Z" fill="#FCFCFD"/>
</svg>
