<svg width="40" height="40" viewBox="0 0 40 40" fill="none" xmlns="http://www.w3.org/2000/svg">
<g clip-path="url(#clip0_8050_3702)">
<path d="M31.6667 5.00008H24.7C24 3.06675 22.1667 1.66675 20 1.66675C17.8333 1.66675 16 3.06675 15.3 5.00008H8.33333C6.5 5.00008 5 6.50008 5 8.33341V31.6667C5 33.5001 6.5 35.0001 8.33333 35.0001H31.6667C33.5 35.0001 35 33.5001 35 31.6667V8.33341C35 6.50008 33.5 5.00008 31.6667 5.00008ZM20 5.00008C20.9167 5.00008 21.6667 5.75008 21.6667 6.66675C21.6667 7.58341 20.9167 8.33341 20 8.33341C19.0833 8.33341 18.3333 7.58341 18.3333 6.66675C18.3333 5.75008 19.0833 5.00008 20 5.00008ZM23.3333 28.3334H11.6667V25.0001H23.3333V28.3334ZM28.3333 21.6667H11.6667V18.3334H28.3333V21.6667ZM28.3333 15.0001H11.6667V11.6667H28.3333V15.0001Z" fill="#0000FF"/>
</g>
<defs>
<clipPath id="clip0_8050_3702">
<rect width="40" height="40" fill="white"/>
</clipPath>
</defs>
</svg>
