<svg width="40" height="40" viewBox="0 0 40 40" fill="none" xmlns="http://www.w3.org/2000/svg">
<g clip-path="url(#clip0_11509_2264)">
<path d="M25.0003 3.33301H10.0003C8.16699 3.33301 6.66699 4.83301 6.66699 6.66634V33.333C6.66699 35.1663 8.16699 36.6663 10.0003 36.6663H30.0003C31.8337 36.6663 33.3337 35.1663 33.3337 33.333V11.6663L25.0003 3.33301ZM10.0003 33.333V6.66634H23.3337V13.333H30.0003V33.333H10.0003ZM26.667 16.6663V24.9997C26.667 28.683 23.6837 31.6663 20.0003 31.6663C16.317 31.6663 13.3337 28.683 13.3337 24.9997V14.1663C13.3337 11.7163 15.4337 9.76634 17.9337 10.0163C20.1003 10.233 21.667 12.2163 21.667 14.3997V24.9997H18.3337V14.1663C18.3337 13.6997 17.967 13.333 17.5003 13.333C17.0337 13.333 16.667 13.6997 16.667 14.1663V24.9997C16.667 26.833 18.167 28.333 20.0003 28.333C21.8337 28.333 23.3337 26.833 23.3337 24.9997V16.6663H26.667Z" fill="#0000FF"/>
</g>
<defs>
<clipPath id="clip0_11509_2264">
<rect width="40" height="40" fill="white"/>
</clipPath>
</defs>
</svg>
