<svg width="49" height="54" viewBox="0 0 49 54" fill="none" xmlns="http://www.w3.org/2000/svg">
<path d="M24.1996 38.8125C33.3881 38.8125 40.8368 30.5018 40.8368 20.25C40.8368 9.99821 33.3881 1.6875 24.1996 1.6875C15.0112 1.6875 7.5625 9.99821 7.5625 20.25C7.5625 30.5018 15.0112 38.8125 24.1996 38.8125Z" stroke="#121212" stroke-width="3.375" stroke-linecap="round" stroke-linejoin="round"/>
<path d="M31.7629 36.7852L34.7878 52.3124L24.2005 45.5624L13.6133 52.3124L16.6382 36.7852" stroke="#121212" stroke-width="3.375" stroke-linecap="round" stroke-linejoin="round"/>
<path d="M25.2712 9.65682L27.7879 15.1873H32.0773C32.3134 15.1809 32.5458 15.2541 32.744 15.3974C32.9423 15.5406 33.0971 15.7473 33.1884 15.9904C33.2797 16.2334 33.3031 16.5016 33.2556 16.7597C33.2081 17.0179 33.092 17.254 32.9222 17.4373L28.9858 21.7528L31.1658 27.3441C31.2619 27.6001 31.2836 27.8835 31.2277 28.154C31.1718 28.4246 31.0411 28.6687 30.8542 28.8519C30.6672 29.0352 30.4334 29.1483 30.1857 29.1753C29.938 29.2022 29.689 29.1417 29.4738 29.0023L24.2004 25.6926L18.9269 29.0023C18.7117 29.1417 18.4627 29.2022 18.215 29.1753C17.9673 29.1483 17.7335 29.0352 17.5465 28.8519C17.3596 28.6687 17.2289 28.4246 17.173 28.154C17.1171 27.8835 17.1388 27.6001 17.2349 27.3441L19.4169 21.7528L15.4785 17.4283C15.3087 17.245 15.1926 17.0089 15.1451 16.7507C15.0976 16.4926 15.121 16.2244 15.2123 15.9814C15.3036 15.7383 15.4584 15.5316 15.6567 15.3884C15.8549 15.2451 16.0873 15.1719 16.3234 15.1783H20.6128L23.1315 9.65682C23.2344 9.4397 23.3883 9.25798 23.5768 9.13123C23.7653 9.00448 23.9813 8.9375 24.2014 8.9375C24.4215 8.9375 24.6374 9.00448 24.8259 9.13123C25.0144 9.25798 25.1684 9.4397 25.2712 9.65682V9.65682Z" stroke="#121212" stroke-width="3.375" stroke-linecap="round" stroke-linejoin="round"/>
</svg>
