<svg width="121" height="70" viewBox="0 0 121 70" fill="none" xmlns="http://www.w3.org/2000/svg">
<path d="M2.56908 0C1.23961 0 0.155289 1.08432 0.155289 2.41379V9.65515H120.845V2.41379C120.845 1.08432 119.77 0 118.431 0H2.56908ZM2.56908 14.4827C5.3223 14.4827 7.39665 16.5571 7.39665 19.3103V36.2068C7.39665 48.2946 15.4866 58.4966 26.5561 61.7025C26.0375 63.824 24.2743 65.1723 21.8794 65.1723C21.0119 65.1629 20.201 65.6154 19.7579 66.3698C19.3242 67.1241 19.3242 68.0481 19.7579 68.8024C20.201 69.5567 21.0119 70.0093 21.8794 69.9999C26.4335 69.9999 30.2145 66.8506 31.2328 62.6076C32.1286 62.7019 33.0337 62.7585 33.9483 62.7585H87.0517C87.9663 62.7585 88.8714 62.7019 89.7672 62.6076C90.7855 66.8506 94.5665 69.9999 99.1206 69.9999C99.9881 70.0093 100.799 69.5567 101.242 68.8024C101.676 68.0481 101.676 67.1241 101.242 66.3698C100.799 65.6154 99.9881 65.1629 99.1206 65.1723C96.7257 65.1723 94.9625 63.824 94.4439 61.7025C105.513 58.4966 113.603 48.2946 113.603 36.2068V19.3103C113.603 16.5571 115.678 14.4827 118.431 14.4827H2.56908Z" fill="#0000FF"/>
</svg>
