<svg width="634" height="1143" viewBox="0 0 634 1143" fill="none" xmlns="http://www.w3.org/2000/svg">
<g clip-path="url(#clip0_11613_5784)">
<path d="M54.167 118.582L-388.985 561.734L-275.132 908.799L168.004 465.663L54.167 118.582Z" stroke="#4E4EFF" stroke-width="2" stroke-linecap="round" stroke-linejoin="round"/>
<path d="M-275.134 908.799L71.9495 1022.67L515.101 579.518L168.002 465.663L-275.134 908.799Z" stroke="#4E4EFF" stroke-width="2" stroke-linecap="round" stroke-linejoin="round"/>
<path d="M54.1653 118.582L396.964 231.033L515.101 579.518L168.002 465.663L54.1653 118.582Z" stroke="#4E4EFF" stroke-width="2" stroke-linecap="round" stroke-linejoin="round"/>
<path d="M100.25 164.666L377.91 255.755L468.999 533.415L191.324 442.341L100.25 164.666Z" stroke="#4E4EFF" stroke-width="2" stroke-linecap="round" stroke-linejoin="round"/>
<path d="M354.588 279.077L377.91 255.755L100.25 164.666L111.303 199.279L354.588 279.077Z" stroke="#4E4EFF" stroke-width="2" stroke-linecap="round" stroke-linejoin="round"/>
<path d="M468.999 533.415L377.909 255.756L354.588 279.077L434.279 522.033L468.999 533.415Z" stroke="#4E4EFF" stroke-width="2" stroke-linecap="round" stroke-linejoin="round"/>
<path d="M18.9053 199.945L-4.41598 223.267L6.94861 257.968L30.2699 234.647L18.9053 199.945Z" stroke="#4E4EFF" stroke-width="2" stroke-linecap="round" stroke-linejoin="round"/>
<path d="M37.1777 253.207L13.8565 276.528L25.2392 311.248L48.5605 287.927L37.1777 253.207Z" stroke="#4E4EFF" stroke-width="2" stroke-linecap="round" stroke-linejoin="round"/>
<path d="M55.4512 306.467L32.1299 329.788L43.5127 364.508L66.8499 341.171L55.4512 306.467Z" stroke="#4E4EFF" stroke-width="2" stroke-linecap="round" stroke-linejoin="round"/>
<path d="M73.7227 359.729L50.4014 383.05L61.8001 417.754L85.1213 394.433L73.7227 359.729Z" stroke="#4E4EFF" stroke-width="2" stroke-linecap="round" stroke-linejoin="round"/>
<path d="M91.9951 412.992L68.6739 436.313L80.0725 471.017L103.394 447.696L91.9951 412.992Z" stroke="#4E4EFF" stroke-width="2" stroke-linecap="round" stroke-linejoin="round"/>
<path d="M-10.1963 300.582L-33.5176 323.903L-22.1348 358.623L1.18647 335.302L-10.1963 300.582Z" stroke="#4E4EFF" stroke-width="2" stroke-linecap="round" stroke-linejoin="round"/>
<path d="M8.0752 353.842L-15.2461 377.163L-3.86329 411.883L19.458 388.562L8.0752 353.842Z" stroke="#4E4EFF" stroke-width="2" stroke-linecap="round" stroke-linejoin="round"/>
<path d="M26.3467 407.105L3.02543 430.427L14.4241 465.131L37.7454 441.809L26.3467 407.105Z" stroke="#4E4EFF" stroke-width="2" stroke-linecap="round" stroke-linejoin="round"/>
<path d="M44.6191 460.367L21.2979 483.688L32.6966 518.392L56.0178 495.071L44.6191 460.367Z" stroke="#4E4EFF" stroke-width="2" stroke-linecap="round" stroke-linejoin="round"/>
<path d="M-21.0264 454.479L-44.3476 477.8L-32.9649 512.52L-9.62769 489.183L-21.0264 454.479Z" stroke="#4E4EFF" stroke-width="2" stroke-linecap="round" stroke-linejoin="round"/>
<path d="M-2.75488 507.74L-26.0761 531.061L-14.6774 565.766L8.64381 542.444L-2.75488 507.74Z" stroke="#4E4EFF" stroke-width="2" stroke-linecap="round" stroke-linejoin="round"/>
<path d="M428.761 613.907L405.44 637.228L370.736 625.829L394.057 602.508L428.761 613.907Z" stroke="#4E4EFF" stroke-width="2" stroke-linecap="round" stroke-linejoin="round"/>
<path d="M375.481 595.617L352.16 618.938L317.474 607.558L340.796 584.237L375.481 595.617Z" stroke="#4E4EFF" stroke-width="2" stroke-linecap="round" stroke-linejoin="round"/>
<path d="M322.236 577.329L298.899 600.666L264.195 589.267L287.516 565.946L322.236 577.329Z" stroke="#4E4EFF" stroke-width="2" stroke-linecap="round" stroke-linejoin="round"/>
<path d="M268.974 559.057L245.653 582.378L210.933 570.996L234.254 547.674L268.974 559.057Z" stroke="#4E4EFF" stroke-width="2" stroke-linecap="round" stroke-linejoin="round"/>
<path d="M215.712 540.786L192.391 564.107L157.671 552.724L180.993 529.403L215.712 540.786Z" stroke="#4E4EFF" stroke-width="2" stroke-linecap="round" stroke-linejoin="round"/>
<path d="M381.388 661.282L358.067 684.603L323.347 673.22L346.684 649.883L381.388 661.282Z" stroke="#4E4EFF" stroke-width="2" stroke-linecap="round" stroke-linejoin="round"/>
<path d="M328.107 642.99L304.786 666.311L270.1 654.931L293.422 631.61L328.107 642.99Z" stroke="#4E4EFF" stroke-width="2" stroke-linecap="round" stroke-linejoin="round"/>
<path d="M274.845 624.719L251.524 648.041L216.82 636.642L240.141 613.321L274.845 624.719Z" stroke="#4E4EFF" stroke-width="2" stroke-linecap="round" stroke-linejoin="round"/>
<path d="M221.601 606.432L198.28 629.753L163.56 618.371L186.881 595.049L221.601 606.432Z" stroke="#4E4EFF" stroke-width="2" stroke-linecap="round" stroke-linejoin="round"/>
<path d="M168.338 588.159L145.017 611.48L110.297 600.097L133.619 576.776L168.338 588.159Z" stroke="#4E4EFF" stroke-width="2" stroke-linecap="round" stroke-linejoin="round"/>
<path d="M334.012 708.657L310.691 731.978L275.971 720.595L299.308 697.258L334.012 708.657Z" stroke="#4E4EFF" stroke-width="2" stroke-linecap="round" stroke-linejoin="round"/>
<path d="M280.731 690.367L257.41 713.688L222.724 702.308L246.046 678.987L280.731 690.367Z" stroke="#4E4EFF" stroke-width="2" stroke-linecap="round" stroke-linejoin="round"/>
<path d="M227.469 672.094L204.148 695.416L169.444 684.017L192.765 660.696L227.469 672.094Z" stroke="#4E4EFF" stroke-width="2" stroke-linecap="round" stroke-linejoin="round"/>
<path d="M174.225 653.807L150.888 677.144L116.184 665.746L139.505 642.424L174.225 653.807Z" stroke="#4E4EFF" stroke-width="2" stroke-linecap="round" stroke-linejoin="round"/>
<path d="M120.962 635.536L97.6412 658.857L62.9213 647.474L86.2425 624.153L120.962 635.536Z" stroke="#4E4EFF" stroke-width="2" stroke-linecap="round" stroke-linejoin="round"/>
<path d="M286.638 756.03L263.317 779.351L228.597 767.968L251.934 744.631L286.638 756.03Z" stroke="#4E4EFF" stroke-width="2" stroke-linecap="round" stroke-linejoin="round"/>
<path d="M233.357 737.74L210.036 761.061L175.35 749.681L198.672 726.36L233.357 737.74Z" stroke="#4E4EFF" stroke-width="2" stroke-linecap="round" stroke-linejoin="round"/>
<path d="M180.095 719.469L156.774 742.791L122.07 731.392L145.391 708.071L180.095 719.469Z" stroke="#4E4EFF" stroke-width="2" stroke-linecap="round" stroke-linejoin="round"/>
<path d="M126.851 701.18L103.514 724.517L68.8099 713.119L92.1312 689.797L126.851 701.18Z" stroke="#4E4EFF" stroke-width="2" stroke-linecap="round" stroke-linejoin="round"/>
<path d="M73.5884 682.909L50.2672 706.23L15.5472 694.847L38.8685 671.526L73.5884 682.909Z" stroke="#4E4EFF" stroke-width="2" stroke-linecap="round" stroke-linejoin="round"/>
<path d="M239.262 803.407L215.941 826.728L181.221 815.345L204.558 792.008L239.262 803.407Z" stroke="#4E4EFF" stroke-width="2" stroke-linecap="round" stroke-linejoin="round"/>
<path d="M185.981 785.117L162.66 808.438L127.974 797.058L151.296 773.737L185.981 785.117Z" stroke="#4E4EFF" stroke-width="2" stroke-linecap="round" stroke-linejoin="round"/>
<path d="M132.719 766.844L109.398 790.166L74.694 778.767L98.0153 755.446L132.719 766.844Z" stroke="#4E4EFF" stroke-width="2" stroke-linecap="round" stroke-linejoin="round"/>
<path d="M79.4752 748.557L56.138 771.894L21.434 760.496L44.7552 737.174L79.4752 748.557Z" stroke="#4E4EFF" stroke-width="2" stroke-linecap="round" stroke-linejoin="round"/>
<path d="M26.2125 730.286L2.89121 753.607L-31.8287 742.224L-8.50744 718.903L26.2125 730.286Z" stroke="#4E4EFF" stroke-width="2" stroke-linecap="round" stroke-linejoin="round"/>
<path d="M-136.304 954.345L-43.3375 861.379L61.1066 895.206L-32.1785 988.491L-136.304 954.345Z" stroke="#4E4EFF" stroke-width="2" stroke-linecap="round" stroke-linejoin="round"/>
<path d="M3.76994 923.987L-30.3762 958.133L-8.85543 965.168L25.8001 930.512L3.76994 923.987Z" stroke="#4E4EFF" stroke-width="2" stroke-linecap="round" stroke-linejoin="round"/>
</g>
<defs>
<clipPath id="clip0_11613_5784">
<rect width="657" height="959" fill="white" transform="translate(169.115) rotate(45)"/>
</clipPath>
</defs>
</svg>
