<svg width="40" height="40" viewBox="0 0 40 40" fill="none" xmlns="http://www.w3.org/2000/svg">
<g clip-path="url(#clip0_11509_2261)">
<path d="M31.6667 5.00033H24.7C24 3.06699 22.1667 1.66699 20 1.66699C17.8333 1.66699 16 3.06699 15.3 5.00033H8.33333C6.5 5.00033 5 6.50033 5 8.33366V31.667C5 33.5003 6.5 35.0003 8.33333 35.0003H31.6667C33.5 35.0003 35 33.5003 35 31.667V8.33366C35 6.50033 33.5 5.00033 31.6667 5.00033ZM20 5.00033C20.9167 5.00033 21.6667 5.75033 21.6667 6.66699C21.6667 7.58366 20.9167 8.33366 20 8.33366C19.0833 8.33366 18.3333 7.58366 18.3333 6.66699C18.3333 5.75033 19.0833 5.00033 20 5.00033ZM23.3333 28.3337H11.6667V25.0003H23.3333V28.3337ZM28.3333 21.667H11.6667V18.3337H28.3333V21.667ZM28.3333 15.0003H11.6667V11.667H28.3333V15.0003Z" fill="#0000FF"/>
</g>
<defs>
<clipPath id="clip0_11509_2261">
<rect width="40" height="40" fill="white"/>
</clipPath>
</defs>
</svg>
