<svg width="40" height="40" viewBox="0 0 40 40" fill="none" xmlns="http://www.w3.org/2000/svg">
<g clip-path="url(#clip0_8050_3705)">
<path d="M25.0003 3.33325H10.0003C8.16699 3.33325 6.66699 4.83325 6.66699 6.66659V33.3333C6.66699 35.1666 8.16699 36.6666 10.0003 36.6666H30.0003C31.8337 36.6666 33.3337 35.1666 33.3337 33.3333V11.6666L25.0003 3.33325ZM10.0003 33.3333V6.66659H23.3337V13.3333H30.0003V33.3333H10.0003ZM26.667 16.6666V24.9999C26.667 28.6833 23.6837 31.6666 20.0003 31.6666C16.317 31.6666 13.3337 28.6833 13.3337 24.9999V14.1666C13.3337 11.7166 15.4337 9.76659 17.9337 10.0166C20.1003 10.2333 21.667 12.2166 21.667 14.3999V24.9999H18.3337V14.1666C18.3337 13.6999 17.967 13.3333 17.5003 13.3333C17.0337 13.3333 16.667 13.6999 16.667 14.1666V24.9999C16.667 26.8333 18.167 28.3333 20.0003 28.3333C21.8337 28.3333 23.3337 26.8333 23.3337 24.9999V16.6666H26.667Z" fill="#0000FF"/>
</g>
<defs>
<clipPath id="clip0_8050_3705">
<rect width="40" height="40" fill="white"/>
</clipPath>
</defs>
</svg>
