<svg width="109" height="86" viewBox="0 0 109 86" fill="none" xmlns="http://www.w3.org/2000/svg">
<path d="M97.7777 31.5733L79.8532 5.97479L88.386 0L106.31 25.5985L97.7777 31.5733Z" fill="#0000FF"/>
<path d="M87.9657 44.8015L79.0037 32.0027L36.3396 61.8765L45.3017 74.6755L36.7688 80.6505L12.8698 46.5192L21.4026 40.5442L30.3649 53.3437L73.0293 23.4699L64.0668 10.6704L72.5996 4.69564L96.4986 38.827L87.9657 44.8015Z" fill="#0000FF"/>
<path d="M100.335 17.0655L108.868 11.0907L102.894 2.55788L94.361 8.53267L100.335 17.0655Z" fill="#0000FF"/>
<path d="M29.5152 79.3709L11.5909 53.7725L3.05807 59.747L20.9823 85.3454L29.5152 79.3709Z" fill="#0000FF"/>
<path d="M15.0076 76.8134L6.47474 82.7878L0.5 74.255L9.03281 68.2805L15.0076 76.8134Z" fill="#0000FF"/>
</svg>
