<svg width="100" height="100" viewBox="0 0 100 100" fill="none" xmlns="http://www.w3.org/2000/svg">
<mask id="mask0_8749_3212" style="mask-type:alpha" maskUnits="userSpaceOnUse" x="0" y="0" width="100" height="100">
<rect width="100" height="100" fill="#D9D9D9"/>
</mask>
<g mask="url(#mask0_8749_3212)">
<path d="M55.8333 91.25L50 85.4167L64.7917 70.625L29.375 35.2083L14.5833 50L8.75 44.1667L14.5833 38.125L8.75 32.2917L17.5 23.5417L11.6667 17.5L17.5 11.6667L23.5417 17.5L32.2917 8.75L38.125 14.5833L44.1667 8.75L50 14.5833L35.2083 29.375L70.625 64.7917L85.4167 50L91.25 55.8333L85.4167 61.875L91.25 67.7083L82.5 76.4583L88.3334 82.5L82.5 88.3334L76.4583 82.5L67.7083 91.25L61.875 85.4167L55.8333 91.25Z" fill="#0000FF"/>
</g>
</svg>
