<svg width="427" height="411" viewBox="0 0 427 411" fill="none" xmlns="http://www.w3.org/2000/svg">
<path d="M516.844 129.902L469.833 157.044L424.787 133.343L471.798 106.201L516.844 129.902Z" stroke="#0000FF" stroke-opacity="0.5" stroke-width="2" stroke-linecap="round" stroke-linejoin="round"/>
<path d="M448.182 92.4141L401.171 119.556L356.157 95.8358L403.168 68.6942L448.182 92.4141Z" stroke="#0000FF" stroke-opacity="0.5" stroke-width="2" stroke-linecap="round" stroke-linejoin="round"/>
<path d="M379.518 54.9326L332.507 82.0743L287.493 58.3543L334.504 31.2127L379.518 54.9326Z" stroke="#0000FF" stroke-opacity="0.5" stroke-width="2" stroke-linecap="round" stroke-linejoin="round"/>
<path d="M490.014 222.524L443.003 249.666L397.957 225.965L444.968 198.823L490.014 222.524Z" stroke="#0000FF" stroke-opacity="0.5" stroke-width="2" stroke-linecap="round" stroke-linejoin="round"/>
<path d="M421.35 185.036L374.339 212.178L329.293 188.476L376.304 161.335L421.35 185.036Z" stroke="#0000FF" stroke-opacity="0.5" stroke-width="2" stroke-linecap="round" stroke-linejoin="round"/>
<path d="M352.682 147.548L305.671 174.689L260.625 150.988L307.668 123.828L352.682 147.548Z" stroke="#0000FF" stroke-opacity="0.5" stroke-width="2" stroke-linecap="round" stroke-linejoin="round"/>
<path d="M284.023 110.065L237.013 137.207L191.999 113.487L239.01 86.3455L284.023 110.065Z" stroke="#0000FF" stroke-opacity="0.5" stroke-width="2" stroke-linecap="round" stroke-linejoin="round"/>
<path d="M463.182 315.146L416.171 342.287L371.142 318.615L418.153 291.474L463.182 315.146Z" stroke="#0000FF" stroke-opacity="0.5" stroke-width="2" stroke-linecap="round" stroke-linejoin="round"/>
<path d="M394.514 277.657L347.503 304.799L302.457 281.097L349.468 253.956L394.514 277.657Z" stroke="#0000FF" stroke-opacity="0.5" stroke-width="2" stroke-linecap="round" stroke-linejoin="round"/>
<path d="M325.85 240.169L278.839 267.311L233.793 243.609L280.804 216.468L325.85 240.169Z" stroke="#0000FF" stroke-opacity="0.5" stroke-width="2" stroke-linecap="round" stroke-linejoin="round"/>
<path d="M257.188 202.687L210.177 229.828L165.131 206.127L212.174 178.967L257.188 202.687Z" stroke="#0000FF" stroke-opacity="0.5" stroke-width="2" stroke-linecap="round" stroke-linejoin="round"/>
<path d="M188.525 165.198L141.515 192.34L96.501 168.62L143.512 141.478L188.525 165.198Z" stroke="#0000FF" stroke-opacity="0.5" stroke-width="2" stroke-linecap="round" stroke-linejoin="round"/>
<path d="M367.676 370.278L320.665 397.42L275.636 373.748L322.647 346.606L367.676 370.278Z" stroke="#0000FF" stroke-opacity="0.5" stroke-width="2" stroke-linecap="round" stroke-linejoin="round"/>
<path d="M299.02 332.79L252.009 359.932L206.963 336.23L253.974 309.089L299.02 332.79Z" stroke="#0000FF" stroke-opacity="0.5" stroke-width="2" stroke-linecap="round" stroke-linejoin="round"/>
<path d="M230.352 295.308L183.341 322.449L138.295 298.748L185.306 271.606L230.352 295.308Z" stroke="#0000FF" stroke-opacity="0.5" stroke-width="2" stroke-linecap="round" stroke-linejoin="round"/>
<path d="M161.693 257.819L114.683 284.961L69.6369 261.26L116.68 234.099L161.693 257.819Z" stroke="#0000FF" stroke-opacity="0.5" stroke-width="2" stroke-linecap="round" stroke-linejoin="round"/>
<path d="M93.0254 220.337L46.0147 247.479L1.00099 223.759L48.0117 196.617L93.0254 220.337Z" stroke="#0000FF" stroke-opacity="0.5" stroke-width="2" stroke-linecap="round" stroke-linejoin="round"/>
</svg>
