<svg width="24" height="24" viewBox="0 0 24 24" fill="none" xmlns="http://www.w3.org/2000/svg">
<mask id="mask0_8749_3236" style="mask-type:alpha" maskUnits="userSpaceOnUse" x="0" y="0" width="24" height="24">
<rect width="24" height="24" fill="#D9D9D9"/>
</mask>
<g mask="url(#mask0_8749_3236)">
<path d="M3 21V7H9V5L12 2L15 5V11H21V21H3ZM5 19H7V17H5V19ZM5 15H7V13H5V15ZM5 11H7V9H5V11ZM11 19H13V17H11V19ZM11 15H13V13H11V15ZM11 11H13V9H11V11ZM11 7H13V5H11V7ZM17 19H19V17H17V19ZM17 15H19V13H17V15Z" fill="#0000FF"/>
</g>
</svg>
