<svg width="25" height="24" viewBox="0 0 25 24" fill="none" xmlns="http://www.w3.org/2000/svg">
<g id="Social Media Icon/Instagram">
<path id="Instagram" fill-rule="evenodd" clip-rule="evenodd" d="M1.69995 11.9998C1.69995 7.68566 1.69995 5.52858 2.72798 3.97489C3.18705 3.2811 3.78122 2.68692 4.47501 2.22786C6.0287 1.19983 8.18578 1.19983 12.5 1.19983C16.8141 1.19983 18.9712 1.19983 20.5249 2.22786C21.2187 2.68692 21.8129 3.2811 22.2719 3.97489C23.2999 5.52858 23.2999 7.68566 23.2999 11.9998C23.2999 16.314 23.2999 18.4711 22.2719 20.0248C21.8129 20.7186 21.2187 21.3127 20.5249 21.7718C18.9712 22.7998 16.8141 22.7998 12.5 22.7998C8.18578 22.7998 6.0287 22.7998 4.47501 21.7718C3.78122 21.3127 3.18705 20.7186 2.72798 20.0248C1.69995 18.4711 1.69995 16.314 1.69995 11.9998ZM18.0911 12.0001C18.0911 15.0881 15.5877 17.5914 12.4998 17.5914C9.41177 17.5914 6.90847 15.0881 6.90847 12.0001C6.90847 8.91212 9.41177 6.40881 12.4998 6.40881C15.5877 6.40881 18.0911 8.91212 18.0911 12.0001ZM12.4998 15.6997C14.543 15.6997 16.1994 14.0433 16.1994 12.0001C16.1994 9.95687 14.543 8.3005 12.4998 8.3005C10.4565 8.3005 8.80015 9.95687 8.80015 12.0001C8.80015 14.0433 10.4565 15.6997 12.4998 15.6997ZM18.3119 7.44169C19.0375 7.44169 19.6257 6.85348 19.6257 6.1279C19.6257 5.40231 19.0375 4.81411 18.3119 4.81411C17.5863 4.81411 16.9981 5.40231 16.9981 6.1279C16.9981 6.85348 17.5863 7.44169 18.3119 7.44169Z" fill="white"/>
</g>
</svg>
