<svg width="107" height="93" viewBox="0 0 107 93" fill="none" xmlns="http://www.w3.org/2000/svg">
<path d="M65.7409 46.1494C65.6032 46.6759 65.5114 46.9052 65.5114 47.2751V60.7553C65.5114 60.7839 65.5114 60.813 65.5114 60.8419V72.575C65.5114 83.7888 56.4034 93 45.1898 93H20.8884C9.67468 93 0.5 83.789 0.5 72.575V46.1492L65.7409 46.1494Z" fill="#0000FF"/>
<path d="M106.834 46.1496V48.6851C106.834 50.8047 105.22 52.6381 103.123 52.9495L70.7756 57.7501V47.2753C70.7756 46.9052 70.7147 46.6759 70.5768 46.1496H106.834Z" fill="#0000FF"/>
<path d="M45.9325 26.5544L47.8689 24.9984C48.6156 24.3982 49.0365 23.505 49.0233 22.5471C49.0104 21.5893 48.5655 20.7076 47.8027 20.128C45.1294 18.096 43.5491 15.0055 43.4673 11.6484C43.3854 8.29121 44.8131 5.12755 47.3842 2.96762C49.054 1.56534 51.5443 1.78195 52.9468 3.45132C54.3493 5.12069 54.1325 7.61125 52.4631 9.01395C51.4727 9.84573 51.3477 10.9008 51.3612 11.4559C51.3747 12.0108 51.551 13.0586 52.5809 13.8414C55.2916 15.9014 56.8729 19.0358 56.9188 22.4404C56.9649 25.8449 55.4692 29.0206 52.8152 31.1536L50.8787 32.7095C50.1493 33.2954 49.276 33.5802 48.4081 33.5802C47.253 33.5802 46.108 33.0757 45.3281 32.1052C43.9622 30.4053 44.2328 27.9203 45.9325 26.5544Z" fill="#0000FF"/>
<path d="M29.5362 28.5976L31.8075 26.7725C32.848 25.9364 33.4343 24.6913 33.4162 23.3567C33.3983 22.0219 32.7782 20.7932 31.7157 19.9856C28.7462 17.7289 26.9908 14.2958 26.9001 10.5673C26.8093 6.8387 28.3948 3.32405 31.2507 0.925287C32.9205 -0.477417 35.4108 -0.260801 36.8129 1.40878C38.2156 3.07836 37.999 5.5687 36.3294 6.97099C35.3213 7.81772 34.7616 9.05823 34.7938 10.3743C34.8262 11.6904 35.4457 12.9021 36.4935 13.6985C39.5043 15.9866 41.2607 19.4678 41.3117 23.2493C41.363 27.0309 39.7018 30.5582 36.7539 32.927L34.4827 34.7522C33.7533 35.3382 32.8799 35.6228 32.012 35.6228C30.8569 35.6228 29.7119 35.1181 28.9321 34.1478C27.5661 32.4483 27.8367 29.9634 29.5362 28.5976Z" fill="#0000FF"/>
<path d="M13.7582 26.5544L15.6946 24.9984C16.4412 24.3982 16.8622 23.505 16.8489 22.5471C16.8361 21.5893 16.3912 20.7076 15.6284 20.128C12.9546 18.096 11.3744 15.0055 11.2925 11.6486C11.2107 8.29183 12.6383 5.12755 15.2095 2.96762C16.8793 1.56534 19.3694 1.78195 20.7721 3.45132C22.1744 5.1209 21.9578 7.61125 20.2884 9.01395C19.298 9.84594 19.1729 10.9012 19.1864 11.4559C19.2003 12.0108 19.3767 13.0586 20.4064 13.8414C23.1171 15.9014 24.6984 19.0358 24.7443 22.4404C24.7904 25.8449 23.2946 29.0206 20.6406 31.1536L18.7042 32.7095C17.9748 33.2954 17.1015 33.5802 16.2336 33.5802C15.0784 33.5802 13.9335 33.0757 13.1536 32.1052C11.7879 30.4053 12.0585 27.9203 13.7582 26.5544Z" fill="#0000FF"/>
</svg>
