<svg width="100" height="100" viewBox="0 0 100 100" fill="none" xmlns="http://www.w3.org/2000/svg">
<mask id="mask0_8749_3218" style="mask-type:alpha" maskUnits="userSpaceOnUse" x="0" y="0" width="100" height="100">
<rect width="100" height="100" fill="#D9D9D9"/>
</mask>
<g mask="url(#mask0_8749_3218)">
<path d="M20.8333 83.3333C17.361 83.3333 14.4096 82.1181 11.9791 79.6875C9.54853 77.257 8.33325 74.3056 8.33325 70.8333V50H66.7708C67.118 47.6389 68.0555 45.5729 69.5833 43.8021C71.111 42.0313 72.986 40.7639 75.2083 40L94.4791 33.5417L97.0833 41.4583L77.8124 47.9167C76.9791 48.1944 76.302 48.6979 75.7812 49.4271C75.2603 50.1563 74.9999 50.9722 74.9999 51.875V70.8333C74.9999 74.3056 73.7847 77.257 71.3541 79.6875C68.9235 82.1181 65.9721 83.3333 62.4999 83.3333H20.8333ZM18.4374 41.6667C19.4096 39.1667 19.5659 36.9444 18.9062 35C18.2464 33.0556 17.118 31.1111 15.5208 29.1667C13.2291 26.3889 11.7187 23.7674 10.9895 21.3021C10.2603 18.8368 10.1388 15.9028 10.6249 12.5H18.7499C18.1944 15.1389 18.1076 17.2917 18.4895 18.9583C18.8714 20.625 19.861 22.4306 21.4583 24.375C24.0971 27.5694 25.7812 30.3993 26.5103 32.8646C27.2395 35.3299 27.2569 38.2639 26.5624 41.6667H18.4374ZM35.1041 41.6667C36.0763 39.1667 36.2499 36.9444 35.6249 35C34.9999 33.0556 33.8888 31.1111 32.2916 29.1667C29.9999 26.3889 28.4721 23.7674 27.7083 21.3021C26.9444 18.8368 26.8055 15.9028 27.2916 12.5H35.4166C34.861 15.1389 34.7742 17.2917 35.1562 18.9583C35.5381 20.625 36.5277 22.4306 38.1249 24.375C40.7638 27.5694 42.4478 30.3993 43.177 32.8646C43.9062 35.3299 43.9235 38.2639 43.2291 41.6667H35.1041ZM51.7708 41.6667C52.743 39.1667 52.9166 36.9444 52.2916 35C51.6666 33.0556 50.5555 31.1111 48.9583 29.1667C46.6666 26.3889 45.1388 23.7674 44.3749 21.3021C43.611 18.8368 43.4721 15.9028 43.9583 12.5H52.0833C51.5277 15.1389 51.4409 17.2917 51.8228 18.9583C52.2048 20.625 53.1944 22.4306 54.7916 24.375C57.4305 27.5694 59.1145 30.3993 59.8437 32.8646C60.5728 35.3299 60.5902 38.2639 59.8958 41.6667H51.7708Z" fill="#0000FF"/>
</g>
</svg>
