<svg width="24" height="24" viewBox="0 0 24 24" fill="none" xmlns="http://www.w3.org/2000/svg">
<mask id="mask0_8749_3146" style="mask-type:alpha" maskUnits="userSpaceOnUse" x="0" y="0" width="24" height="24">
<rect width="24" height="24" fill="#D9D9D9"/>
</mask>
<g mask="url(#mask0_8749_3146)">
<path d="M7 20.025V11H8.6C8.71667 11 8.83333 11.0125 8.95 11.0375C9.06667 11.0625 9.18333 11.0917 9.3 11.125L16.225 13.7C16.4583 13.7833 16.6458 13.9333 16.7875 14.15C16.9292 14.3667 17 14.5917 17 14.825C17 15.175 16.8792 15.4583 16.6375 15.675C16.3958 15.8917 16.1167 16 15.8 16H13.175C13.0917 16 13.0292 15.9958 12.9875 15.9875C12.9458 15.9792 12.8917 15.9583 12.825 15.925L11.225 15.3L10.9 16.275L12.825 16.95C12.8583 16.9667 12.9083 16.9792 12.975 16.9875C13.0417 16.9958 13.1 17 13.15 17H20C20.5333 17 21 17.1917 21.4 17.575C21.8 17.9583 22 18.4333 22 19L14.025 22L7 20.025ZM1 22V11H5V22H1ZM14.5 8H15.5V7H14.5V8ZM12.5 8H13.5V7H12.5V8ZM14.5 10H15.5V9H14.5V10ZM12.5 10H13.5V9H12.5V10ZM18.525 14C18.2917 13.45 17.9583 12.9667 17.525 12.55C17.0917 12.1333 16.5583 11.8083 15.925 11.575L9 9H7V6.5L14 1.5L21 6.5V14H18.525Z" fill="#0000FF"/>
</g>
</svg>
