<svg width="25" height="24" viewBox="0 0 25 24" fill="none" xmlns="http://www.w3.org/2000/svg">
<g id="Social Media Icon/LinkedIn">
<g id="Group 73">
<path id="LinkedIn" d="M1.69995 3.58944C1.69995 2.89678 1.9432 2.32536 2.42968 1.87515C2.91616 1.42493 3.54861 1.19983 4.32698 1.19983C5.09146 1.19983 5.70998 1.42146 6.18258 1.86476C6.66906 2.32191 6.91231 2.91756 6.91231 3.65178C6.91231 4.31671 6.67602 4.87081 6.20343 5.31411C5.71695 5.77126 5.07756 5.99983 4.28528 5.99983H4.26443C3.49994 5.99983 2.88143 5.77126 2.40883 5.31411C1.93624 4.85697 1.69995 4.28207 1.69995 3.58944ZM1.97099 21.7712V7.89074H6.59956V21.7712H1.97099ZM9.16404 21.7712H13.7926V14.0206C13.7926 13.5357 13.8482 13.1617 13.9594 12.8985C14.154 12.4275 14.4494 12.0292 14.8455 11.7037C15.2416 11.3782 15.7386 11.2154 16.3362 11.2154C17.893 11.2154 18.6714 12.2613 18.6714 14.3531V21.7712H23.3V13.8128C23.3 11.7626 22.8135 10.2076 21.8405 9.14788C20.8675 8.08814 19.5818 7.55827 17.9833 7.55827C16.1903 7.55827 14.7934 8.3271 13.7926 9.86476V9.90632H13.7718L13.7926 9.86476V7.89074H9.16404C9.19184 8.33402 9.20574 9.71237 9.20574 12.0258C9.20574 14.3392 9.19184 17.5877 9.16404 21.7712Z" fill="white"/>
</g>
</g>
</svg>
