<svg width="31" height="31" viewBox="0 0 31 31" fill="none" xmlns="http://www.w3.org/2000/svg">
<path d="M30.3027 6.52779H25.1695C24.7848 6.52779 24.4722 6.21523 24.4722 5.83053V0.69726C24.4722 0.312565 24.1596 0 23.775 0H18.1768C17.7921 0 17.4796 0.312565 17.4796 0.69726V6.29537C17.4796 6.68007 17.7921 6.99263 18.1768 6.99263H23.3101C23.6948 6.99263 24.0074 7.3052 24.0074 7.68989V12.8232C24.0074 13.2079 24.3199 13.5204 24.7046 13.5204H30.3027C30.6874 13.5204 31 13.2079 31 12.8232V7.22505C31 6.84036 30.6874 6.52779 30.3027 6.52779ZM0.69726 13.5204H6.29537C6.68007 13.5204 6.99263 13.2079 6.99263 12.8232V7.68989C6.99263 7.3052 7.3052 6.99263 7.68989 6.99263H12.8232C13.2079 6.99263 13.5204 6.68007 13.5204 6.29537V0.69726C13.5204 0.312565 13.2079 0 12.8232 0H7.22505C6.84036 0 6.52779 0.312565 6.52779 0.69726V5.83053C6.52779 6.21523 6.21523 6.52779 5.83053 6.52779H0.69726C0.312565 6.52779 0 6.84036 0 7.22505V12.8232C0 13.2079 0.312565 13.5204 0.69726 13.5204ZM30.3027 17.4796H24.7046C24.3199 17.4796 24.0074 17.7921 24.0074 18.1768V23.3101C24.0074 23.6948 23.6948 24.0074 23.3101 24.0074H18.1768C17.7921 24.0074 17.4796 24.3199 17.4796 24.7046V30.3027C17.4796 30.6874 17.7921 31 18.1768 31H23.775C24.1596 31 24.4722 30.6874 24.4722 30.3027V25.1695C24.4722 24.7848 24.7848 24.4722 25.1695 24.4722H30.3027C30.6874 24.4722 31 24.1596 31 23.775V18.1768C31 17.7921 30.6874 17.4796 30.3027 17.4796ZM12.8232 24.0074H7.68989C7.3052 24.0074 6.99263 23.6948 6.99263 23.3101V18.1768C6.99263 17.7921 6.68007 17.4796 6.29537 17.4796H0.69726C0.312565 17.4796 0 17.7921 0 18.1768V23.775C0 24.1596 0.312565 24.4722 0.69726 24.4722H5.83053C6.21523 24.4722 6.52779 24.7848 6.52779 25.1695V30.3027C6.52779 30.6874 6.84036 31 7.22505 31H12.8232C13.2079 31 13.5204 30.6874 13.5204 30.3027V24.7046C13.5204 24.3199 13.2079 24.0074 12.8232 24.0074ZM12.0057 12.6989V18.2971C12.0057 18.6817 12.3183 18.9943 12.7029 18.9943H18.3011C18.6858 18.9943 18.9983 18.6817 18.9983 18.2971V12.6989C18.9983 12.3142 18.6858 12.0017 18.3011 12.0017H12.7029C12.3183 12.0017 12.0057 12.3142 12.0057 12.6989Z" fill="#0000FF"/>
</svg>
