<svg width="1130" height="539" viewBox="0 0 1130 539" fill="none" xmlns="http://www.w3.org/2000/svg">
<g clip-path="url(#clip0_8050_3236)">
<path d="M961.724 457.219C861.154 411.283 723.576 382.68 571.581 381.884C569.394 381.874 567.197 381.863 565 381.863C410.399 381.863 270.3 410.624 168.275 457.219" stroke="#333333" stroke-miterlimit="10"/>
<path d="M565 532.574C877.041 532.574 1130 415.429 1130 270.923C1130 126.418 877.041 9.27295 565 9.27295C252.959 9.27295 0 126.418 0 270.923C0 415.429 252.959 532.574 565 532.574Z" stroke="#333333" stroke-miterlimit="10"/>
<path d="M168.255 84.6387C270.279 131.233 410.389 159.994 565 159.994C567.197 159.994 569.394 159.994 571.581 159.973C723.587 159.178 861.175 130.574 961.745 84.6387" stroke="#333333" stroke-miterlimit="10"/>
<path d="M565 531.151C825.034 531.151 1035.83 414.006 1035.83 269.5C1035.83 124.995 825.034 7.84961 565 7.84961C304.966 7.84961 94.167 124.995 94.167 269.5C94.167 414.006 304.966 531.151 565 531.151Z" stroke="#333333" stroke-miterlimit="10"/>
<path d="M565 531.151C764.359 531.151 925.972 414.006 925.972 269.5C925.972 124.995 764.359 7.84961 565 7.84961C365.64 7.84961 204.027 124.995 204.027 269.5C204.027 414.006 365.64 531.151 565 531.151Z" stroke="#333333" stroke-miterlimit="10"/>
<path d="M565 531.151C706.574 531.151 821.342 414.006 821.342 269.5C821.342 124.995 706.574 7.84961 565 7.84961C423.426 7.84961 308.657 124.995 308.657 269.5C308.657 414.006 423.426 531.151 565 531.151Z" stroke="#333333" stroke-miterlimit="10"/>
<path d="M565 531.151C648.789 531.151 716.713 414.006 716.713 269.5C716.713 124.995 648.789 7.84961 565 7.84961C481.211 7.84961 413.287 124.995 413.287 269.5C413.287 414.006 481.211 531.151 565 531.151Z" stroke="#333333" stroke-miterlimit="10"/>
<path d="M571.581 9.29395V159.973V274.733V381.884V532.553" stroke="#333333" stroke-miterlimit="10"/>
<path d="M1129.94 274.733H571.581H0.0625" stroke="#333333" stroke-miterlimit="10"/>
<path d="M433.81 66.5451C435.202 61.5268 432.264 56.3297 427.247 54.937C422.23 53.5444 417.034 56.4836 415.642 61.5019C414.25 66.5202 417.188 71.7173 422.205 73.11C427.222 74.5026 432.417 71.5634 433.81 66.5451Z" fill="white"/>
<path d="M459.648 68.6915C462.214 64.1601 460.622 58.4057 456.092 55.8388C451.562 53.2719 445.809 54.8645 443.243 59.3959C440.677 63.9274 442.269 69.6817 446.799 72.2486C451.329 74.8155 457.082 73.223 459.648 68.6915Z" fill="white"/>
<path d="M487.297 66.0539C488.426 60.9698 485.22 55.9331 480.138 54.8041C475.055 53.6751 470.02 56.8814 468.891 61.9655C467.763 67.0496 470.968 72.0864 476.051 73.2154C481.133 74.3443 486.169 71.1381 487.297 66.0539Z" fill="white"/>
<path d="M513.988 66.0608C515.116 60.9766 511.911 55.9399 506.828 54.8109C501.746 53.6819 496.71 56.8882 495.582 61.9724C494.453 67.0565 497.658 72.0932 502.741 73.2222C507.824 74.3512 512.859 71.1449 513.988 66.0608Z" fill="white"/>
<path d="M471.655 47.8659C475.337 44.1833 475.337 38.2126 471.655 34.53C467.974 30.8474 462.005 30.8475 458.323 34.5301C454.642 38.2127 454.642 44.1833 458.323 47.8659C462.005 51.5485 467.974 51.5485 471.655 47.8659Z" fill="white"/>
<path d="M500.749 43.9088C502.234 38.9174 499.394 33.6663 494.404 32.1802C489.414 30.6941 484.164 33.5357 482.678 38.5271C481.193 43.5186 484.033 48.7697 489.023 50.2558C494.013 51.7419 499.263 48.9003 500.749 43.9088Z" fill="white"/>
<path d="M524.495 48.3515C528.451 44.9651 528.913 39.0123 525.527 35.0557C522.142 31.0991 516.191 30.6368 512.235 34.0233C508.28 37.4098 507.818 43.3625 511.203 47.3191C514.589 51.2758 520.54 51.738 524.495 48.3515Z" fill="white"/>
<path d="M540.635 157.769C541.973 152.736 538.98 147.571 533.948 146.232C528.917 144.893 523.753 147.887 522.414 152.92C521.076 157.953 524.069 163.118 529.1 164.457C534.132 165.797 539.296 162.802 540.635 157.769Z" fill="white"/>
<path d="M564.894 162.019C568.576 158.336 568.576 152.365 564.894 148.683C561.213 145 555.244 145 551.562 148.683C547.881 152.365 547.881 158.336 551.562 162.019C555.244 165.701 561.213 165.701 564.894 162.019Z" fill="white"/>
<path d="M594.067 157.53C595.273 152.464 592.146 147.379 587.081 146.172C582.016 144.965 576.932 148.093 575.726 153.159C574.519 158.226 577.647 163.311 582.711 164.518C587.776 165.725 592.86 162.596 594.067 157.53Z" fill="white"/>
<path d="M618.281 162.015C621.963 158.332 621.963 152.361 618.281 148.679C614.6 144.996 608.631 144.996 604.949 148.679C601.268 152.361 601.268 158.332 604.949 162.015C608.631 165.697 614.6 165.697 618.281 162.015Z" fill="white"/>
<path d="M647.467 157.519C648.674 152.453 645.546 147.367 640.481 146.161C635.417 144.954 630.333 148.082 629.126 153.148C627.92 158.215 631.047 163.3 636.112 164.507C641.177 165.714 646.261 162.585 647.467 157.519Z" fill="white"/>
<path d="M674.16 157.524C675.367 152.458 672.239 147.372 667.175 146.165C662.11 144.959 657.026 148.087 655.819 153.153C654.613 158.219 657.741 163.305 662.805 164.512C667.87 165.719 672.954 162.59 674.16 157.524Z" fill="white"/>
<path d="M698.384 162.016C702.065 158.333 702.065 152.362 698.384 148.68C694.702 144.997 688.733 144.997 685.052 148.68C681.37 152.362 681.37 158.333 685.052 162.016C688.733 165.698 694.702 165.698 698.384 162.016Z" fill="white"/>
<path d="M432.858 160.138C435.501 155.65 434.006 149.87 429.52 147.227C425.034 144.583 419.255 146.078 416.613 150.566C413.97 155.053 415.465 160.833 419.951 163.477C424.437 166.12 430.216 164.625 432.858 160.138Z" fill="white"/>
<path d="M460.525 157.705C461.837 152.665 458.815 147.515 453.777 146.203C448.738 144.891 443.59 147.914 442.279 152.954C440.967 157.994 443.989 163.143 449.027 164.455C454.066 165.767 459.214 162.745 460.525 157.705Z" fill="white"/>
<path d="M484.802 162.018C488.483 158.335 488.483 152.364 484.802 148.682C481.12 144.999 475.151 144.999 471.47 148.682C467.788 152.364 467.788 158.335 471.47 162.018C475.151 165.7 481.12 165.7 484.802 162.018Z" fill="white"/>
<path d="M511.491 162.019C515.173 158.337 515.173 152.366 511.491 148.683C507.81 145.001 501.841 145.001 498.159 148.683C494.478 152.366 494.478 158.337 498.159 162.019C501.841 165.702 507.81 165.702 511.491 162.019Z" fill="white"/>
<path d="M378.002 162.011C381.683 158.329 381.683 152.358 378.002 148.676C374.32 144.993 368.351 144.993 364.67 148.676C360.988 152.358 360.988 158.329 364.67 162.011C368.351 165.694 374.32 165.694 378.002 162.011Z" fill="white"/>
<path d="M407.193 157.512C408.389 152.443 405.251 147.364 400.184 146.168C395.117 144.972 390.039 148.111 388.843 153.18C387.647 158.248 390.786 163.327 395.853 164.524C400.92 165.72 405.997 162.581 407.193 157.512Z" fill="white"/>
<path d="M553.95 135.674C555.696 130.768 553.136 125.375 548.231 123.628C543.326 121.881 537.934 124.441 536.188 129.348C534.441 134.254 537.002 139.647 541.906 141.394C546.811 143.141 552.203 140.58 553.95 135.674Z" fill="white"/>
<path d="M578.432 139.19C582.113 135.507 582.113 129.537 578.432 125.854C574.75 122.171 568.781 122.171 565.1 125.854C561.418 129.537 561.418 135.507 565.1 139.19C568.781 142.873 574.75 142.873 578.432 139.19Z" fill="white"/>
<path d="M607.621 134.691C608.828 129.625 605.7 124.54 600.636 123.333C595.571 122.126 590.487 125.255 589.28 130.321C588.074 135.387 591.201 140.472 596.266 141.679C601.331 142.886 606.415 139.758 607.621 134.691Z" fill="white"/>
<path d="M631.836 139.189C635.517 135.507 635.517 129.536 631.836 125.853C628.154 122.171 622.185 122.171 618.504 125.853C614.822 129.536 614.822 135.507 618.504 139.189C622.185 142.872 628.154 142.872 631.836 139.189Z" fill="white"/>
<path d="M661.009 134.701C662.216 129.635 659.088 124.549 654.023 123.342C648.959 122.135 643.875 125.264 642.668 130.33C641.462 135.396 644.589 140.482 649.654 141.689C654.719 142.896 659.803 139.767 661.009 134.701Z" fill="white"/>
<path d="M687.704 134.696C688.911 129.629 685.783 124.544 680.719 123.337C675.654 122.13 670.57 125.259 669.363 130.325C668.157 135.391 671.284 140.476 676.349 141.683C681.414 142.89 686.498 139.762 687.704 134.696Z" fill="white"/>
<path d="M364.85 139.192C368.531 135.509 368.531 129.539 364.85 125.856C361.168 122.173 355.199 122.173 351.518 125.856C347.836 129.539 347.836 135.509 351.518 139.192C355.199 142.874 361.168 142.874 364.85 139.192Z" fill="white"/>
<path d="M446.429 137.223C449.033 132.713 447.489 126.946 442.981 124.341C438.473 121.736 432.707 123.28 430.103 127.79C427.499 132.3 429.043 138.067 433.551 140.672C438.059 143.277 443.825 141.733 446.429 137.223Z" fill="white"/>
<path d="M474.137 134.919C475.454 129.88 472.438 124.727 467.401 123.41C462.364 122.093 457.213 125.11 455.896 130.149C454.579 135.187 457.595 140.34 462.632 141.657C467.67 142.974 472.82 139.957 474.137 134.919Z" fill="white"/>
<path d="M498.339 139.189C502.02 135.506 502.02 129.536 498.339 125.853C494.657 122.17 488.688 122.17 485.007 125.853C481.325 129.536 481.325 135.506 485.007 139.189C488.688 142.872 494.657 142.872 498.339 139.189Z" fill="white"/>
<path d="M527.533 134.681C528.729 129.612 525.591 124.534 520.524 123.337C515.456 122.141 510.379 125.28 509.183 130.349C507.987 135.418 511.125 140.496 516.193 141.693C521.26 142.889 526.337 139.75 527.533 134.681Z" fill="white"/>
<path d="M391.557 139.186C395.238 135.504 395.238 129.533 391.557 125.85C387.875 122.168 381.906 122.168 378.225 125.85C374.543 129.533 374.543 135.504 378.225 139.186C381.906 142.869 387.875 142.869 391.557 139.186Z" fill="white"/>
<path d="M420.741 134.682C421.937 129.613 418.799 124.534 413.732 123.338C408.664 122.141 403.587 125.281 402.391 130.349C401.195 135.418 404.333 140.497 409.401 141.693C414.468 142.89 419.545 139.75 420.741 134.682Z" fill="white"/>
<path d="M540.631 112.11C541.969 107.077 538.976 101.912 533.945 100.573C528.913 99.2335 523.749 102.228 522.41 107.261C521.072 112.294 524.065 117.459 529.096 118.798C534.128 120.137 539.292 117.143 540.631 112.11Z" fill="white"/>
<path d="M564.901 116.362C568.583 112.679 568.583 106.708 564.901 103.026C561.22 99.3431 555.251 99.3431 551.569 103.026C547.888 106.708 547.888 112.679 551.569 116.362C555.251 120.044 561.22 120.044 564.901 116.362Z" fill="white"/>
<path d="M594.074 111.868C595.281 106.802 592.153 101.716 587.089 100.509C582.024 99.3025 576.94 102.431 575.734 107.497C574.527 112.563 577.655 117.649 582.719 118.856C587.784 120.063 592.868 116.934 594.074 111.868Z" fill="white"/>
<path d="M618.287 116.358C621.969 112.675 621.969 106.704 618.287 103.022C614.606 99.3391 608.637 99.3392 604.955 103.022C601.274 106.704 601.274 112.675 604.955 116.358C608.637 120.04 614.606 120.04 618.287 116.358Z" fill="white"/>
<path d="M647.465 111.868C648.672 106.802 645.544 101.716 640.479 100.509C635.415 99.3022 630.331 102.431 629.124 107.497C627.918 112.563 631.045 117.649 636.11 118.856C641.175 120.062 646.259 116.934 647.465 111.868Z" fill="white"/>
<path d="M674.168 111.872C675.375 106.806 672.247 101.721 667.182 100.514C662.118 99.3069 657.034 102.435 655.827 107.502C654.621 112.568 657.748 117.653 662.813 118.86C667.878 120.067 672.962 116.939 674.168 111.872Z" fill="white"/>
<path d="M432.864 114.486C435.506 109.999 434.012 104.218 429.526 101.575C425.04 98.9317 419.261 100.427 416.619 104.914C413.976 109.401 415.471 115.182 419.957 117.825C424.443 120.468 430.222 118.973 432.864 114.486Z" fill="white"/>
<path d="M460.532 112.054C461.844 107.014 458.822 101.865 453.784 100.553C448.745 99.2409 443.597 102.263 442.286 107.303C440.974 112.343 443.996 117.492 449.034 118.804C454.073 120.116 459.221 117.094 460.532 112.054Z" fill="white"/>
<path d="M484.798 116.361C488.479 112.678 488.479 106.707 484.798 103.025C481.116 99.3421 475.147 99.3421 471.466 103.025C467.784 106.707 467.784 112.678 471.466 116.361C475.147 120.043 481.116 120.043 484.798 116.361Z" fill="white"/>
<path d="M511.497 116.362C515.178 112.68 515.178 106.709 511.497 103.026C507.815 99.3438 501.847 99.3438 498.165 103.026C494.483 106.709 494.483 112.68 498.165 116.362C501.847 120.045 507.815 120.045 511.497 116.362Z" fill="white"/>
<path d="M378.008 116.365C381.689 112.682 381.689 106.712 378.008 103.029C374.326 99.3465 368.357 99.3465 364.676 103.029C360.994 106.712 360.994 112.682 364.676 116.365C368.357 120.048 374.326 120.048 378.008 116.365Z" fill="white"/>
<path d="M407.2 111.859C408.396 106.79 405.258 101.712 400.191 100.515C395.123 99.319 390.046 102.458 388.85 107.527C387.654 112.596 390.792 117.674 395.86 118.871C400.927 120.067 406.004 116.928 407.2 111.859Z" fill="white"/>
<path d="M553.157 91.7319C555.844 87.2706 554.406 81.4758 549.946 78.7888C545.486 76.1018 539.693 77.5401 537.006 82.0014C534.32 86.4627 535.758 92.2576 540.218 94.9446C544.678 97.6315 550.471 96.1932 553.157 91.7319Z" fill="white"/>
<path d="M580.811 89.4456C582.244 84.4386 579.347 79.218 574.342 77.7851C569.336 76.3522 564.117 79.2496 562.685 84.2566C561.252 89.2636 564.149 94.4841 569.154 95.917C574.16 97.3499 579.379 94.4526 580.811 89.4456Z" fill="white"/>
<path d="M604.746 93.958C608.641 90.5023 608.998 84.5424 605.544 80.646C602.089 76.7497 596.131 76.3925 592.235 79.8482C588.34 83.3038 587.983 89.2638 591.438 93.1601C594.893 97.0565 600.851 97.4137 604.746 93.958Z" fill="white"/>
<path d="M634.207 89.4455C635.639 84.4385 632.743 79.218 627.737 77.7851C622.732 76.3522 617.513 79.2496 616.08 84.2566C614.648 89.2635 617.544 94.4841 622.55 95.917C627.555 97.3499 632.774 94.4525 634.207 89.4455Z" fill="white"/>
<path d="M658.146 93.9578C662.042 90.5021 662.399 84.5421 658.944 80.6458C655.489 76.7495 649.531 76.3922 645.636 79.8479C641.741 83.3036 641.384 89.2636 644.838 93.1599C648.293 97.0562 654.251 97.4134 658.146 93.9578Z" fill="white"/>
<path d="M447.044 90.2694C448.933 85.4165 446.532 79.9503 441.681 78.0602C436.829 76.17 431.365 78.5718 429.475 83.4247C427.586 88.2776 429.987 93.7439 434.838 95.634C439.69 97.5241 445.154 95.1223 447.044 90.2694Z" fill="white"/>
<path d="M471.809 93.368C475.399 89.5959 475.252 83.627 471.481 80.0362C467.71 76.4453 461.743 76.5922 458.153 80.3643C454.563 84.1364 454.71 90.1053 458.481 93.6962C462.252 97.287 468.219 97.1401 471.809 93.368Z" fill="white"/>
<path d="M500.753 89.4949C502.198 84.4917 499.316 79.2636 494.314 77.8176C489.312 76.3716 484.085 79.2553 482.64 84.2585C481.194 89.2617 484.077 94.4898 489.079 95.9358C494.081 97.3818 499.307 94.4981 500.753 89.4949Z" fill="white"/>
<path d="M524.569 93.9693C528.494 90.5478 528.904 84.5911 525.483 80.6648C522.062 76.7385 516.108 76.3292 512.182 79.7508C508.257 83.1723 507.848 89.129 511.269 93.0553C514.689 96.9816 520.644 97.3908 524.569 93.9693Z" fill="white"/>
<path d="M393.961 89.4815C395.406 84.4783 392.524 79.2502 387.522 77.8042C382.52 76.3582 377.293 79.2419 375.848 84.2451C374.402 89.2483 377.285 94.4764 382.287 95.9224C387.289 97.3684 392.515 94.4847 393.961 89.4815Z" fill="white"/>
<path d="M417.772 93.9671C421.698 90.5456 422.107 84.5889 418.686 80.6626C415.266 76.7363 409.311 76.327 405.386 79.7486C401.46 83.1701 401.051 89.1268 404.472 93.0531C407.892 96.9794 413.847 97.3886 417.772 93.9671Z" fill="white"/>
<path d="M538.948 252.418C542.144 248.307 541.403 242.382 537.293 239.185C533.183 235.988 527.26 236.729 524.064 240.841C520.868 244.952 521.609 250.876 525.719 254.073C529.829 257.27 535.752 256.529 538.948 252.418Z" fill="white"/>
<path d="M567.368 248.78C568.553 243.709 565.404 238.637 560.334 237.451C555.265 236.265 550.194 239.415 549.009 244.486C547.823 249.557 550.972 254.63 556.042 255.815C561.112 257.001 566.182 253.851 567.368 248.78Z" fill="white"/>
<path d="M591.587 253.338C595.268 249.656 595.268 243.685 591.587 240.003C587.905 236.32 581.936 236.32 578.255 240.003C574.573 243.685 574.573 249.656 578.255 253.338C581.936 257.021 587.905 257.021 591.587 253.338Z" fill="white"/>
<path d="M620.758 248.791C621.944 243.72 618.795 238.647 613.725 237.462C608.655 236.276 603.585 239.426 602.399 244.497C601.214 249.568 604.363 254.64 609.432 255.826C614.502 257.012 619.573 253.862 620.758 248.791Z" fill="white"/>
<path d="M644.99 253.338C648.672 249.655 648.672 243.685 644.99 240.002C641.309 236.319 635.34 236.319 631.658 240.002C627.977 243.685 627.977 249.655 631.658 253.338C635.34 257.02 641.309 257.02 644.99 253.338Z" fill="white"/>
<path d="M671.689 253.339C675.371 249.657 675.371 243.686 671.689 240.003C668.008 236.321 662.039 236.321 658.357 240.003C654.676 243.686 654.676 249.657 658.357 253.339C662.039 257.022 668.008 257.022 671.689 253.339Z" fill="white"/>
<path d="M700.85 248.791C702.035 243.72 698.887 238.648 693.817 237.462C688.747 236.276 683.676 239.426 682.491 244.497C681.306 249.569 684.455 254.641 689.524 255.827C694.594 257.012 699.665 253.862 700.85 248.791Z" fill="white"/>
<path d="M725.083 253.339C728.764 249.656 728.764 243.686 725.083 240.003C721.401 236.32 715.432 236.32 711.751 240.003C708.069 243.686 708.069 249.656 711.751 253.339C715.432 257.021 721.401 257.021 725.083 253.339Z" fill="white"/>
<path d="M754.241 248.791C755.426 243.72 752.277 238.648 747.207 237.462C742.138 236.276 737.067 239.426 735.882 244.497C734.696 249.569 737.845 254.641 742.915 255.827C747.985 257.012 753.055 253.862 754.241 248.791Z" fill="white"/>
<path d="M433.759 249.509C435.311 244.538 432.54 239.25 427.57 237.697C422.6 236.145 417.314 238.917 415.762 243.888C414.21 248.86 416.981 254.148 421.951 255.7C426.921 257.252 432.207 254.481 433.759 249.509Z" fill="white"/>
<path d="M458.744 252.589C462.025 248.545 461.409 242.606 457.366 239.324C453.324 236.042 447.387 236.658 444.106 240.702C440.824 244.745 441.441 250.684 445.483 253.966C449.525 257.249 455.462 256.632 458.744 252.589Z" fill="white"/>
<path d="M487.291 248.819C488.487 243.75 485.349 238.672 480.281 237.475C475.214 236.279 470.137 239.418 468.941 244.487C467.745 249.556 470.883 254.634 475.95 255.831C481.018 257.027 486.095 253.888 487.291 248.819Z" fill="#0000FF"/>
<path d="M513.992 248.822C515.188 243.753 512.05 238.674 506.983 237.478C501.915 236.281 496.838 239.421 495.642 244.489C494.446 249.558 497.584 254.637 502.652 255.833C507.719 257.029 512.796 253.89 513.992 248.822Z" fill="#0000FF"/>
<path d="M404.704 253.342C408.386 249.66 408.386 243.689 404.704 240.006C401.022 236.324 395.054 236.324 391.372 240.006C387.691 243.689 387.691 249.66 391.372 253.342C395.054 257.025 401.023 257.025 404.704 253.342Z" fill="white"/>
<path d="M553.539 227.983C555.832 223.308 553.902 217.658 549.227 215.364C544.553 213.071 538.905 215.002 536.612 219.677C534.319 224.353 536.249 230.003 540.924 232.297C545.598 234.59 551.246 232.659 553.539 227.983Z" fill="white"/>
<path d="M580.906 225.966C582.091 220.895 578.942 215.823 573.872 214.637C568.803 213.452 563.732 216.601 562.547 221.673C561.361 226.744 564.51 231.816 569.58 233.002C574.65 234.187 579.72 231.038 580.906 225.966Z" fill="white"/>
<path d="M605.134 230.506C608.815 226.823 608.815 220.853 605.134 217.17C601.452 213.487 595.483 213.487 591.802 217.17C588.12 220.853 588.12 226.823 591.802 230.506C595.483 234.188 601.452 234.188 605.134 230.506Z" fill="white"/>
<path d="M634.298 225.956C635.484 220.885 632.335 215.813 627.265 214.627C622.195 213.441 617.125 216.591 615.939 221.662C614.754 226.734 617.903 231.806 622.973 232.992C628.042 234.177 633.113 231.028 634.298 225.956Z" fill="white"/>
<path d="M658.53 230.512C662.212 226.83 662.212 220.859 658.53 217.177C654.849 213.494 648.88 213.494 645.198 217.177C641.517 220.859 641.517 226.83 645.198 230.512C648.88 234.195 654.849 234.195 658.53 230.512Z" fill="white"/>
<path d="M685.226 230.507C688.908 226.824 688.908 220.854 685.226 217.171C681.545 213.488 675.576 213.488 671.894 217.171C668.213 220.854 668.213 226.824 671.894 230.507C675.576 234.189 681.545 234.189 685.226 230.507Z" fill="white"/>
<path d="M714.391 225.957C715.577 220.885 712.428 215.813 707.358 214.627C702.288 213.442 697.217 216.592 696.032 221.663C694.847 226.734 697.996 231.806 703.065 232.992C708.135 234.178 713.206 231.028 714.391 225.957Z" fill="white"/>
<path d="M738.631 230.506C742.312 226.823 742.312 220.853 738.631 217.17C734.949 213.487 728.98 213.487 725.299 217.17C721.617 220.853 721.617 226.823 725.299 230.506C728.98 234.188 734.949 234.188 738.631 230.506Z" fill="white"/>
<path d="M767.782 225.957C768.967 220.886 765.818 215.813 760.748 214.628C755.679 213.442 750.608 216.592 749.423 221.663C748.237 226.734 751.386 231.806 756.456 232.992C761.526 234.178 766.596 231.028 767.782 225.957Z" fill="white"/>
<path d="M447.289 226.709C448.859 221.744 446.107 216.445 441.143 214.875C436.179 213.304 430.882 216.057 429.312 221.022C427.742 225.988 430.494 231.286 435.458 232.857C440.422 234.427 445.719 231.675 447.289 226.709Z" fill="white"/>
<path d="M472.319 229.765C475.586 225.71 474.949 219.774 470.895 216.506C466.842 213.237 460.907 213.875 457.64 217.93C454.372 221.984 455.01 227.921 459.063 231.189C463.117 234.458 469.052 233.82 472.319 229.765Z" fill="#0000FF"/>
<path d="M500.826 225.997C502.022 220.928 498.884 215.849 493.817 214.653C488.749 213.457 483.672 216.596 482.476 221.665C481.28 226.733 484.418 231.812 489.486 233.008C494.553 234.205 499.63 231.066 500.826 225.997Z" fill="#0000FF"/>
<path d="M525.041 230.505C528.722 226.822 528.722 220.851 525.041 217.169C521.359 213.486 515.39 213.486 511.709 217.169C508.027 220.851 508.027 226.822 511.709 230.505C515.39 234.187 521.359 234.187 525.041 230.505Z" fill="#0000FF"/>
<path d="M394.047 225.987C395.243 220.919 392.105 215.84 387.037 214.643C381.97 213.447 376.893 216.586 375.697 221.655C374.501 226.724 377.639 231.803 382.706 232.999C387.774 234.195 392.851 231.056 394.047 225.987Z" fill="white"/>
<path d="M418.241 230.509C421.923 226.827 421.923 220.856 418.241 217.173C414.56 213.491 408.591 213.491 404.909 217.173C401.228 220.856 401.228 226.827 404.909 230.509C408.591 234.192 414.56 234.192 418.241 230.509Z" fill="white"/>
<path d="M540.637 203.431C541.976 198.398 538.983 193.233 533.951 191.894C528.92 190.555 523.756 193.549 522.417 198.582C521.078 203.615 524.072 208.78 529.103 210.119C534.135 211.458 539.299 208.464 540.637 203.431Z" fill="white"/>
<path d="M564.896 207.672C568.578 203.99 568.578 198.019 564.896 194.336C561.215 190.654 555.246 190.654 551.564 194.336C547.883 198.019 547.883 203.99 551.564 207.672C555.246 211.355 561.215 211.355 564.896 207.672Z" fill="white"/>
<path d="M594.069 203.184C595.275 198.118 592.148 193.033 587.083 191.826C582.018 190.619 576.934 193.747 575.728 198.813C574.521 203.88 577.649 208.965 582.713 210.172C587.778 211.379 592.862 208.25 594.069 203.184Z" fill="white"/>
<path d="M618.292 207.679C621.973 203.996 621.973 198.026 618.292 194.343C614.61 190.66 608.641 190.66 604.96 194.343C601.278 198.026 601.278 203.996 604.96 207.679C608.641 211.362 614.61 211.362 618.292 207.679Z" fill="white"/>
<path d="M647.47 203.173C648.677 198.107 645.549 193.022 640.484 191.815C635.42 190.608 630.336 193.736 629.129 198.802C627.922 203.869 631.05 208.954 636.115 210.161C641.18 211.368 646.263 208.239 647.47 203.173Z" fill="white"/>
<path d="M674.162 203.188C675.369 198.122 672.241 193.037 667.177 191.83C662.112 190.623 657.028 193.751 655.821 198.818C654.615 203.884 657.742 208.969 662.807 210.176C667.872 211.383 672.956 208.254 674.162 203.188Z" fill="white"/>
<path d="M698.386 207.68C702.067 203.998 702.067 198.027 698.386 194.344C694.704 190.662 688.735 190.662 685.054 194.344C681.372 198.027 681.372 203.998 685.054 207.68C688.735 211.363 694.704 211.363 698.386 207.68Z" fill="white"/>
<path d="M727.554 203.177C728.761 198.111 725.633 193.026 720.568 191.819C715.504 190.612 710.42 193.74 709.213 198.807C708.006 203.873 711.134 208.958 716.199 210.165C721.264 211.372 726.347 208.243 727.554 203.177Z" fill="white"/>
<path d="M432.861 205.805C435.504 201.318 434.009 195.537 429.523 192.894C425.037 190.251 419.258 191.745 416.616 196.233C413.973 200.72 415.468 206.501 419.954 209.144C424.44 211.787 430.219 210.292 432.861 205.805Z" fill="white"/>
<path d="M460.528 203.358C461.84 198.318 458.818 193.169 453.78 191.857C448.741 190.545 443.593 193.567 442.282 198.607C440.97 203.647 443.992 208.796 449.03 210.108C454.069 211.42 459.217 208.398 460.528 203.358Z" fill="#0000FF"/>
<path d="M484.803 207.671C488.484 203.989 488.484 198.018 484.803 194.335C481.121 190.653 475.152 190.653 471.471 194.335C467.789 198.018 467.789 203.989 471.471 207.671C475.152 211.354 481.121 211.354 484.803 207.671Z" fill="#0000FF"/>
<path d="M511.492 207.684C515.174 204.001 515.174 198.03 511.492 194.348C507.811 190.665 501.842 190.665 498.16 194.348C494.479 198.03 494.479 204.001 498.16 207.684C501.842 211.366 507.811 211.366 511.492 207.684Z" fill="#0000FF"/>
<path d="M378.003 207.676C381.684 203.993 381.684 198.023 378.003 194.34C374.321 190.658 368.352 190.658 364.671 194.34C360.989 198.023 360.989 203.993 364.671 207.676C368.352 211.359 374.321 211.359 378.003 207.676Z" fill="white"/>
<path d="M407.197 203.167C408.393 198.098 405.255 193.019 400.188 191.823C395.12 190.627 390.043 193.766 388.847 198.835C387.651 203.903 390.789 208.982 395.857 210.179C400.924 211.375 406.001 208.236 407.197 203.167Z" fill="white"/>
<path d="M553.951 181.333C555.698 176.427 553.138 171.033 548.233 169.286C543.328 167.539 537.936 170.1 536.19 175.006C534.443 179.913 537.003 185.306 541.908 187.053C546.813 188.8 552.205 186.239 553.951 181.333Z" fill="white"/>
<path d="M578.443 184.854C582.125 181.172 582.125 175.201 578.443 171.519C574.762 167.836 568.793 167.836 565.111 171.519C561.43 175.201 561.43 181.172 565.111 184.854C568.793 188.537 574.762 188.537 578.443 184.854Z" fill="white"/>
<path d="M607.623 180.356C608.83 175.29 605.702 170.204 600.638 168.997C595.573 167.79 590.489 170.919 589.282 175.985C588.076 181.051 591.203 186.137 596.268 187.344C601.333 188.55 606.417 185.422 607.623 180.356Z" fill="white"/>
<path d="M631.837 184.853C635.518 181.171 635.518 175.2 631.837 171.518C628.155 167.835 622.186 167.835 618.505 171.518C614.823 175.2 614.823 181.171 618.505 184.853C622.186 188.536 628.155 188.536 631.837 184.853Z" fill="white"/>
<path d="M661.012 180.355C662.219 175.289 659.091 170.203 654.026 168.996C648.962 167.79 643.878 170.918 642.671 175.984C641.464 181.05 644.592 186.136 649.657 187.343C654.722 188.55 659.805 185.421 661.012 180.355Z" fill="white"/>
<path d="M687.717 180.349C688.924 175.283 685.796 170.198 680.731 168.991C675.667 167.784 670.583 170.913 669.376 175.979C668.17 181.045 671.297 186.13 676.362 187.337C681.427 188.544 686.51 185.416 687.717 180.349Z" fill="white"/>
<path d="M711.93 184.855C715.611 181.172 715.611 175.201 711.93 171.519C708.248 167.836 702.279 167.836 698.598 171.519C694.916 175.201 694.916 181.172 698.598 184.855C702.279 188.537 708.248 188.537 711.93 184.855Z" fill="white"/>
<path d="M364.861 184.846C368.543 181.163 368.543 175.192 364.861 171.51C361.18 167.827 355.211 167.827 351.529 171.51C347.848 175.192 347.848 181.163 351.529 184.846C355.211 188.528 361.18 188.528 364.861 184.846Z" fill="white"/>
<path d="M446.43 182.877C449.034 178.368 447.49 172.6 442.982 169.995C438.473 167.391 432.708 168.935 430.104 173.445C427.5 177.954 429.044 183.722 433.552 186.327C438.06 188.931 443.826 187.387 446.43 182.877Z" fill="white"/>
<path d="M474.139 180.587C475.456 175.548 472.44 170.395 467.403 169.078C462.366 167.761 457.215 170.778 455.898 175.817C454.581 180.855 457.597 186.008 462.634 187.325C467.672 188.642 472.822 185.625 474.139 180.587Z" fill="white"/>
<path d="M498.34 184.853C502.021 181.171 502.021 175.2 498.34 171.517C494.658 167.835 488.689 167.835 485.008 171.517C481.326 175.2 481.326 181.171 485.008 184.853C488.689 188.536 494.658 188.536 498.34 184.853Z" fill="white"/>
<path d="M527.536 180.336C528.732 175.267 525.594 170.189 520.527 168.992C515.459 167.796 510.382 170.935 509.186 176.004C507.99 181.073 511.128 186.151 516.196 187.348C521.263 188.544 526.34 185.405 527.536 180.336Z" fill="white"/>
<path d="M391.558 184.851C395.239 181.168 395.239 175.197 391.558 171.515C387.876 167.832 381.907 167.832 378.226 171.515C374.544 175.197 374.544 181.168 378.226 184.851C381.907 188.533 387.876 188.533 391.558 184.851Z" fill="white"/>
<path d="M420.744 180.337C421.94 175.268 418.802 170.189 413.735 168.993C408.667 167.796 403.59 170.936 402.394 176.004C401.198 181.073 404.336 186.152 409.404 187.348C414.471 188.545 419.548 185.405 420.744 180.337Z" fill="white"/>
<path d="M567.386 340.135C568.582 335.066 565.443 329.987 560.376 328.791C555.309 327.594 550.232 330.734 549.036 335.802C547.84 340.871 550.978 345.95 556.045 347.146C561.112 348.342 566.19 345.203 567.386 340.135Z" fill="white"/>
<path d="M591.592 344.66C595.273 340.977 595.273 335.006 591.592 331.324C587.91 327.641 581.941 327.641 578.26 331.324C574.578 335.006 574.578 340.977 578.26 344.66C581.941 348.342 587.91 348.342 591.592 344.66Z" fill="white"/>
<path d="M620.77 340.139C621.966 335.071 618.828 329.992 613.761 328.796C608.694 327.599 603.616 330.738 602.42 335.807C601.224 340.876 604.363 345.955 609.43 347.151C614.497 348.347 619.575 345.208 620.77 340.139Z" fill="white"/>
<path d="M644.985 344.659C648.667 340.977 648.667 335.006 644.985 331.323C641.304 327.641 635.335 327.641 631.653 331.323C627.972 335.006 627.972 340.977 631.653 344.659C635.335 348.342 641.304 348.342 644.985 344.659Z" fill="white"/>
<path d="M671.685 344.661C675.366 340.978 675.366 335.007 671.684 331.325C668.003 327.642 662.034 327.642 658.353 331.325C654.671 335.007 654.671 340.978 658.353 344.661C662.034 348.343 668.003 348.343 671.685 344.661Z" fill="white"/>
<path d="M700.869 340.136C702.065 335.067 698.927 329.988 693.86 328.792C688.792 327.596 683.715 330.735 682.519 335.804C681.323 340.872 684.461 345.951 689.529 347.148C694.596 348.344 699.673 345.205 700.869 340.136Z" fill="white"/>
<path d="M553.622 319.201C555.84 314.489 553.82 308.871 549.11 306.652C544.4 304.433 538.783 306.453 536.565 311.165C534.346 315.876 536.366 321.495 541.076 323.714C545.787 325.933 551.403 323.912 553.622 319.201Z" fill="white"/>
<path d="M580.99 317.319C582.165 312.245 579.005 307.179 573.933 306.004C568.861 304.829 563.797 307.99 562.622 313.063C561.447 318.137 564.607 323.203 569.679 324.378C574.751 325.553 579.816 322.392 580.99 317.319Z" fill="white"/>
<path d="M605.446 321.544C608.957 317.699 608.687 311.734 604.843 308.222C600.999 304.709 595.036 304.979 591.525 308.824C588.014 312.669 588.283 318.634 592.127 322.146C595.972 325.659 601.934 325.389 605.446 321.544Z" fill="white"/>
<path d="M634.39 317.315C635.564 312.241 632.405 307.175 627.333 306C622.26 304.825 617.196 307.986 616.022 313.059C614.847 318.133 618.006 323.199 623.079 324.374C628.151 325.549 633.215 322.388 634.39 317.315Z" fill="white"/>
<path d="M658.834 321.546C662.346 317.701 662.076 311.736 658.232 308.224C654.388 304.712 648.425 304.981 644.914 308.827C641.402 312.672 641.672 318.636 645.516 322.149C649.36 325.661 655.323 325.391 658.834 321.546Z" fill="white"/>
<path d="M685.538 321.544C689.049 317.699 688.779 311.734 684.935 308.222C681.091 304.709 675.128 304.979 671.617 308.824C668.105 312.669 668.375 318.634 672.219 322.146C676.063 325.659 682.026 325.389 685.538 321.544Z" fill="white"/>
<path d="M538.952 298.078C542.148 293.967 541.407 288.043 537.297 284.846C533.187 281.649 527.264 282.39 524.068 286.501C520.872 290.612 521.613 296.537 525.723 299.734C529.833 302.931 535.756 302.19 538.952 298.078Z" fill="white"/>
<path d="M567.362 294.434C568.547 289.363 565.398 284.29 560.329 283.105C555.259 281.919 550.188 285.069 549.003 290.14C547.817 295.211 550.966 300.283 556.036 301.469C561.106 302.655 566.177 299.505 567.362 294.434Z" fill="white"/>
<path d="M591.591 298.996C595.272 295.313 595.272 289.342 591.591 285.66C587.909 281.977 581.94 281.977 578.259 285.66C574.577 289.342 574.577 295.313 578.259 298.996C581.94 302.678 587.909 302.678 591.591 298.996Z" fill="white"/>
<path d="M620.752 294.445C621.938 289.373 618.789 284.301 613.719 283.115C608.649 281.93 603.579 285.08 602.393 290.151C601.208 295.222 604.357 300.294 609.427 301.48C614.496 302.666 619.567 299.516 620.752 294.445Z" fill="white"/>
<path d="M644.983 298.995C648.665 295.312 648.665 289.341 644.983 285.659C641.302 281.976 635.333 281.976 631.651 285.659C627.97 289.341 627.97 295.312 631.651 298.995C635.333 302.677 641.302 302.677 644.983 298.995Z" fill="white"/>
<path d="M671.684 298.997C675.365 295.314 675.365 289.343 671.683 285.661C668.002 281.978 662.033 281.978 658.352 285.661C654.67 289.343 654.67 295.314 658.352 298.997C662.033 302.679 668.002 302.679 671.684 298.997Z" fill="white"/>
<path d="M700.844 294.445C702.03 289.374 698.881 284.302 693.811 283.116C688.741 281.93 683.671 285.08 682.485 290.151C681.3 295.222 684.449 300.295 689.518 301.48C694.588 302.666 699.659 299.516 700.844 294.445Z" fill="white"/>
<path d="M725.077 298.996C728.759 295.313 728.759 289.342 725.077 285.66C721.396 281.977 715.427 281.977 711.745 285.66C708.064 289.342 708.064 295.313 711.745 298.996C715.427 302.678 721.396 302.678 725.077 298.996Z" fill="white"/>
<path d="M553.54 273.652C555.833 268.976 553.902 263.326 549.228 261.033C544.554 258.739 538.906 260.67 536.613 265.346C534.32 270.022 536.25 275.671 540.925 277.965C545.599 280.259 551.247 278.328 553.54 273.652Z" fill="white"/>
<path d="M580.911 271.622C582.096 266.551 578.947 261.479 573.877 260.293C568.808 259.108 563.737 262.257 562.552 267.329C561.366 272.4 564.515 277.472 569.585 278.658C574.655 279.843 579.725 276.694 580.911 271.622Z" fill="white"/>
<path d="M605.135 276.17C608.816 272.487 608.816 266.517 605.135 262.834C601.453 259.151 595.484 259.151 591.803 262.834C588.121 266.517 588.121 272.487 591.803 276.17C595.484 279.852 601.453 279.852 605.135 276.17Z" fill="white"/>
<path d="M634.303 271.613C635.489 266.541 632.34 261.469 627.27 260.283C622.2 259.098 617.13 262.248 615.944 267.319C614.759 272.39 617.908 277.462 622.977 278.648C628.047 279.834 633.118 276.684 634.303 271.613Z" fill="white"/>
<path d="M658.531 276.177C662.213 272.494 662.213 266.523 658.531 262.841C654.85 259.158 648.881 259.158 645.199 262.841C641.518 266.523 641.518 272.494 645.199 276.177C648.881 279.859 654.85 279.859 658.531 276.177Z" fill="white"/>
<path d="M685.227 276.171C688.909 272.488 688.909 266.518 685.227 262.835C681.546 259.152 675.577 259.152 671.895 262.835C668.214 266.518 668.214 272.488 671.895 276.171C675.577 279.853 681.546 279.854 685.227 276.171Z" fill="white"/>
<path d="M714.395 271.613C715.58 266.542 712.432 261.47 707.362 260.284C702.292 259.098 697.221 262.248 696.036 267.319C694.851 272.39 697.999 277.463 703.069 278.648C708.139 279.834 713.21 276.684 714.395 271.613Z" fill="white"/>
<path d="M738.632 276.16C742.313 272.477 742.313 266.506 738.632 262.824C734.95 259.141 728.981 259.141 725.3 262.824C721.618 266.506 721.618 272.477 725.3 276.16C728.981 279.842 734.95 279.842 738.632 276.16Z" fill="white"/>
<path d="M525.042 276.169C528.723 272.486 528.723 266.516 525.042 262.833C521.36 259.15 515.391 259.15 511.71 262.833C508.028 266.516 508.028 272.486 511.71 276.169C515.391 279.852 521.36 279.852 525.042 276.169Z" fill="white"/>
<path d="M564.897 435.969C568.579 432.286 568.579 426.315 564.897 422.633C561.216 418.95 555.247 418.95 551.565 422.633C547.884 426.315 547.884 432.286 551.565 435.969C555.247 439.651 561.216 439.651 564.897 435.969Z" fill="white"/>
<path d="M594.074 431.455C595.27 426.386 592.132 421.307 587.065 420.111C581.997 418.915 576.92 422.054 575.724 427.123C574.528 432.191 577.666 437.27 582.734 438.466C587.801 439.663 592.878 436.524 594.074 431.455Z" fill="white"/>
<path d="M618.283 435.976C621.965 432.293 621.965 426.322 618.283 422.64C614.602 418.957 608.633 418.957 604.951 422.64C601.27 426.322 601.27 432.293 604.951 435.976C608.633 439.658 614.602 439.658 618.283 435.976Z" fill="white"/>
<path d="M647.471 431.449C648.667 426.381 645.528 421.302 640.461 420.106C635.394 418.909 630.317 422.048 629.121 427.117C627.925 432.186 631.063 437.265 636.13 438.461C641.197 439.657 646.275 436.518 647.471 431.449Z" fill="white"/>
<path d="M674.162 431.452C675.358 426.383 672.22 421.304 667.153 420.108C662.085 418.912 657.008 422.051 655.812 427.12C654.616 432.188 657.754 437.267 662.822 438.464C667.889 439.66 672.966 436.521 674.162 431.452Z" fill="white"/>
<path d="M751.772 435.973C755.454 432.29 755.454 426.319 751.772 422.637C748.091 418.954 742.122 418.954 738.44 422.637C734.759 426.319 734.759 432.29 738.44 435.973C742.122 439.655 748.091 439.655 751.772 435.973Z" fill="white"/>
<path d="M553.995 409.639C555.722 404.726 553.14 399.343 548.228 397.616C543.316 395.888 537.935 398.471 536.208 403.384C534.481 408.297 537.063 413.681 541.975 415.408C546.886 417.135 552.268 414.553 553.995 409.639Z" fill="white"/>
<path d="M578.434 413.151C582.116 409.468 582.116 403.498 578.434 399.815C574.753 396.132 568.784 396.132 565.102 399.815C561.421 403.498 561.421 409.468 565.103 413.151C568.784 416.833 574.753 416.833 578.434 413.151Z" fill="white"/>
<path d="M607.621 408.625C608.817 403.556 605.679 398.477 600.612 397.281C595.544 396.085 590.467 399.224 589.271 404.292C588.075 409.361 591.213 414.44 596.281 415.636C601.348 416.833 606.425 413.693 607.621 408.625Z" fill="white"/>
<path d="M631.838 413.15C635.519 409.468 635.519 403.497 631.838 399.814C628.156 396.132 622.187 396.132 618.506 399.814C614.824 403.497 614.824 409.468 618.506 413.15C622.187 416.833 628.156 416.833 631.838 413.15Z" fill="white"/>
<path d="M661.016 408.63C662.212 403.561 659.073 398.482 654.006 397.286C648.939 396.089 643.861 399.229 642.666 404.297C641.47 409.366 644.608 414.445 649.675 415.641C654.742 416.838 659.82 413.698 661.016 408.63Z" fill="white"/>
<path d="M687.72 408.622C688.916 403.553 685.777 398.474 680.71 397.278C675.643 396.082 670.566 399.221 669.37 404.29C668.174 409.358 671.312 414.437 676.379 415.633C681.446 416.83 686.524 413.691 687.72 408.622Z" fill="white"/>
<path d="M741.117 408.616C742.313 403.548 739.175 398.469 734.108 397.273C729.04 396.076 723.963 399.215 722.767 404.284C721.571 409.353 724.709 414.432 729.777 415.628C734.844 416.824 739.921 413.685 741.117 408.616Z" fill="white"/>
<path d="M765.327 413.147C769.009 409.465 769.009 403.494 765.327 399.812C761.646 396.129 755.677 396.129 751.995 399.812C748.314 403.494 748.314 409.465 751.995 413.147C755.677 416.83 761.646 416.83 765.327 413.147Z" fill="white"/>
<path d="M540.687 386.092C542.013 381.056 539.007 375.898 533.972 374.571C528.938 373.244 523.781 376.251 522.454 381.287C521.128 386.323 524.134 391.481 529.169 392.808C534.203 394.135 539.36 391.128 540.687 386.092Z" fill="white"/>
<path d="M564.893 390.312C568.575 386.629 568.575 380.659 564.893 376.976C561.212 373.294 555.243 373.294 551.562 376.976C547.88 380.659 547.88 386.629 551.562 390.312C555.243 393.995 561.212 393.995 564.893 390.312Z" fill="white"/>
<path d="M594.08 385.792C595.276 380.723 592.138 375.644 587.071 374.448C582.003 373.252 576.926 376.391 575.73 381.46C574.534 386.528 577.672 391.607 582.74 392.803C587.807 394 592.884 390.861 594.08 385.792Z" fill="white"/>
<path d="M618.289 390.318C621.97 386.636 621.971 380.665 618.289 376.982C614.607 373.3 608.639 373.3 604.957 376.982C601.275 380.665 601.275 386.636 604.957 390.318C608.639 394.001 614.607 394.001 618.289 390.318Z" fill="white"/>
<path d="M647.477 385.786C648.673 380.718 645.535 375.639 640.468 374.443C635.401 373.246 630.323 376.385 629.127 381.454C627.931 386.523 631.07 391.602 636.137 392.798C641.204 393.994 646.282 390.855 647.477 385.786Z" fill="white"/>
<path d="M674.169 385.799C675.365 380.73 672.227 375.652 667.159 374.455C662.092 373.259 657.015 376.398 655.819 381.467C654.623 386.536 657.761 391.614 662.828 392.811C667.896 394.007 672.973 390.868 674.169 385.799Z" fill="white"/>
<path d="M698.383 390.32C702.064 386.637 702.064 380.667 698.383 376.984C694.701 373.301 688.732 373.301 685.051 376.984C681.369 380.667 681.369 386.637 685.051 390.32C688.732 394.002 694.701 394.002 698.383 390.32Z" fill="white"/>
<path d="M780.96 385.788C782.156 380.72 779.018 375.641 773.95 374.445C768.883 373.248 763.806 376.387 762.61 381.456C761.414 386.525 764.552 391.604 769.619 392.8C774.687 393.996 779.764 390.857 780.96 385.788Z" fill="white"/>
<path d="M545.079 370.246C550.285 370.246 554.506 366.024 554.506 360.816C554.506 355.608 550.285 351.386 545.079 351.386C539.872 351.386 535.651 355.608 535.651 360.816C535.651 366.024 539.872 370.246 545.079 370.246Z" fill="white"/>
<path d="M573.924 370.027C578.991 368.83 582.129 363.752 580.934 358.683C579.738 353.614 574.66 350.475 569.593 351.671C564.526 352.868 561.388 357.946 562.583 363.015C563.779 368.084 568.857 371.223 573.924 370.027Z" fill="white"/>
<path d="M607.372 363.754C609.018 358.813 606.349 353.473 601.409 351.826C596.47 350.18 591.131 352.85 589.485 357.791C587.839 362.732 590.509 368.072 595.449 369.719C600.388 371.365 605.726 368.694 607.372 363.754Z" fill="white"/>
<path d="M627.332 370.022C632.399 368.826 635.538 363.747 634.342 358.678C633.146 353.61 628.068 350.471 623.001 351.667C617.934 352.863 614.796 357.942 615.992 363.011C617.188 368.079 622.265 371.219 627.332 370.022Z" fill="white"/>
<path d="M660.769 363.761C662.415 358.82 659.745 353.48 654.806 351.834C649.866 350.187 644.528 352.858 642.882 357.799C641.236 362.74 643.906 368.08 648.845 369.726C653.784 371.373 659.123 368.702 660.769 363.761Z" fill="white"/>
<path d="M687.457 363.75C689.103 358.809 686.434 353.469 681.494 351.822C676.555 350.176 671.216 352.846 669.57 357.787C667.924 362.728 670.594 368.068 675.533 369.715C680.473 371.361 685.811 368.691 687.457 363.75Z" fill="white"/>
<path d="M707.419 370.028C712.486 368.832 715.625 363.753 714.429 358.684C713.233 353.616 708.155 350.476 703.088 351.673C698.021 352.869 694.883 357.948 696.079 363.017C697.275 368.085 702.352 371.225 707.419 370.028Z" fill="white"/>
<path d="M580.925 499.941C582.121 494.872 578.982 489.793 573.915 488.597C568.848 487.401 563.771 490.54 562.575 495.608C561.379 500.677 564.517 505.756 569.584 506.952C574.651 508.149 579.729 505.009 580.925 499.941Z" fill="white"/>
<path d="M605.136 504.467C608.817 500.784 608.817 494.813 605.136 491.131C601.454 487.448 595.485 487.448 591.804 491.131C588.122 494.813 588.122 500.784 591.804 504.467C595.485 508.149 601.454 508.149 605.136 504.467Z" fill="white"/>
<path d="M634.321 499.935C635.517 494.867 632.379 489.788 627.312 488.591C622.244 487.395 617.167 490.534 615.971 495.603C614.775 500.672 617.913 505.751 622.981 506.947C628.048 508.143 633.125 505.004 634.321 499.935Z" fill="white"/>
<path d="M567.387 477.108C568.583 472.039 565.444 466.96 560.377 465.764C555.31 464.568 550.233 467.707 549.037 472.775C547.841 477.844 550.979 482.923 556.046 484.119C561.113 485.316 566.191 482.176 567.387 477.108Z" fill="white"/>
<path d="M591.588 481.635C595.269 477.953 595.269 471.982 591.588 468.299C587.906 464.617 581.937 464.617 578.256 468.299C574.574 471.982 574.574 477.953 578.256 481.635C581.937 485.318 587.906 485.318 591.588 481.635Z" fill="white"/>
<path d="M620.781 477.102C621.977 472.034 618.839 466.955 613.772 465.758C608.704 464.562 603.627 467.701 602.431 472.77C601.235 477.839 604.373 482.918 609.441 484.114C614.508 485.31 619.585 482.171 620.781 477.102Z" fill="white"/>
<path d="M644.991 481.634C648.673 477.952 648.673 471.981 644.991 468.298C641.31 464.616 635.341 464.616 631.659 468.298C627.978 471.981 627.978 477.952 631.659 481.634C635.341 485.317 641.31 485.317 644.991 481.634Z" fill="white"/>
<path d="M553.995 455.303C555.722 450.39 553.14 445.007 548.228 443.28C543.316 441.552 537.935 444.135 536.208 449.048C534.481 453.961 537.063 459.345 541.975 461.072C546.886 462.799 552.268 460.217 553.995 455.303Z" fill="white"/>
<path d="M578.435 458.815C582.117 455.133 582.117 449.162 578.435 445.48C574.754 441.797 568.785 441.797 565.103 445.48C561.422 449.162 561.422 455.133 565.103 458.815C568.785 462.498 574.754 462.498 578.435 458.815Z" fill="white"/>
<path d="M607.635 454.28C608.831 449.211 605.692 444.132 600.625 442.936C595.558 441.74 590.481 444.879 589.285 449.948C588.089 455.016 591.227 460.095 596.294 461.292C601.361 462.488 606.439 459.349 607.635 454.28Z" fill="white"/>
<path d="M631.839 458.804C635.52 455.122 635.52 449.151 631.839 445.468C628.157 441.786 622.188 441.786 618.507 445.468C614.825 449.151 614.825 455.122 618.507 458.804C622.188 462.487 628.157 462.487 631.839 458.804Z" fill="white"/>
<path d="M661.019 454.285C662.215 449.216 659.077 444.137 654.01 442.941C648.943 441.745 643.865 444.884 642.669 449.953C641.473 455.021 644.612 460.1 649.679 461.297C654.746 462.493 659.824 459.354 661.019 454.285Z" fill="white"/>
<path d="M741.12 454.271C742.316 449.203 739.178 444.124 734.111 442.927C729.043 441.731 723.966 444.87 722.77 449.939C721.574 455.008 724.712 460.087 729.78 461.283C734.847 462.479 739.924 459.34 741.12 454.271Z" fill="white"/>
</g>
<defs>
<clipPath id="clip0_8050_3236">
<rect width="1130" height="539" fill="white"/>
</clipPath>
</defs>
</svg>
