<svg width="100" height="100" viewBox="0 0 100 100" fill="none" xmlns="http://www.w3.org/2000/svg">
<mask id="mask0_8749_3224" style="mask-type:alpha" maskUnits="userSpaceOnUse" x="0" y="0" width="100" height="100">
<rect width="100" height="100" fill="#D9D9D9"/>
</mask>
<g mask="url(#mask0_8749_3224)">
<path d="M25 79.1666V83.3332C25 84.5138 24.6007 85.5034 23.8021 86.302C23.0035 87.1006 22.0139 87.4999 20.8333 87.4999H16.6667C15.4861 87.4999 14.4965 87.1006 13.6979 86.302C12.8993 85.5034 12.5 84.5138 12.5 83.3332V49.9999L21.25 24.9999C21.6667 23.7499 22.4132 22.743 23.4896 21.9791C24.566 21.2152 25.7639 20.8333 27.0833 20.8333H72.9167C74.2361 20.8333 75.434 21.2152 76.5104 21.9791C77.5868 22.743 78.3333 23.7499 78.75 24.9999L87.5 49.9999V83.3332C87.5 84.5138 87.1007 85.5034 86.3021 86.302C85.5035 87.1006 84.5139 87.4999 83.3333 87.4999H79.1667C77.9861 87.4999 76.9965 87.1006 76.1979 86.302C75.3993 85.5034 75 84.5138 75 83.3332V79.1666H25ZM24.1667 41.6666H75.8333L71.4583 29.1666H28.5417L24.1667 41.6666ZM31.25 66.6666C32.9861 66.6666 34.4618 66.0589 35.6771 64.8437C36.8924 63.6284 37.5 62.1527 37.5 60.4166C37.5 58.6805 36.8924 57.2048 35.6771 55.9895C34.4618 54.7742 32.9861 54.1666 31.25 54.1666C29.5139 54.1666 28.0382 54.7742 26.8229 55.9895C25.6076 57.2048 25 58.6805 25 60.4166C25 62.1527 25.6076 63.6284 26.8229 64.8437C28.0382 66.0589 29.5139 66.6666 31.25 66.6666ZM68.75 66.6666C70.4861 66.6666 71.9618 66.0589 73.1771 64.8437C74.3924 63.6284 75 62.1527 75 60.4166C75 58.6805 74.3924 57.2048 73.1771 55.9895C71.9618 54.7742 70.4861 54.1666 68.75 54.1666C67.0139 54.1666 65.5382 54.7742 64.3229 55.9895C63.1076 57.2048 62.5 58.6805 62.5 60.4166C62.5 62.1527 63.1076 63.6284 64.3229 64.8437C65.5382 66.0589 67.0139 66.6666 68.75 66.6666Z" fill="#0000FF"/>
</g>
</svg>
