<svg width="87" height="87" viewBox="0 0 87 87" fill="none" xmlns="http://www.w3.org/2000/svg">
<path d="M43.7127 0L0.889954 21.5713V86.6406H4.30156V23.6325L43.7127 3.87359L83.1595 23.7036V86.6406H86.5V21.5713L43.7127 0ZM69.9039 51.4229L64.6444 37.8475C63.6849 35.2888 61.5171 33.0499 57.4302 33.0499H29.8175C25.8018 33.0499 23.6695 35.2533 22.6034 37.8475L17.3439 51.4229C15.2827 51.7072 11.5868 54.1237 11.5868 58.7436V76.0149H16.7042V81.5587C16.7042 88.3464 26.3349 88.3109 26.3349 81.5587V76.0149H61.0195V81.5587C61.0195 88.3109 70.6502 88.3464 70.6502 81.5587V76.0149H75.7676V58.7436C75.661 54.1237 72.0007 51.6361 69.9039 51.4229ZM21.6439 65.6024C19.2273 65.6024 17.2017 63.5412 17.2017 61.018C17.2017 58.5304 19.1918 56.4337 21.6439 56.4337C24.0605 56.4337 26.0861 58.4949 26.0861 61.018C26.0861 63.5412 24.1315 65.6024 21.6439 65.6024ZM22.8166 51.2807L26.7613 40.5839C27.2233 39.0558 28.0051 38.0252 29.7465 37.9541H57.4658C59.2071 37.9541 59.9534 39.0558 60.4509 40.5839L64.3956 51.2807H22.8166ZM65.6394 65.6024C63.2229 65.6024 61.1972 63.5412 61.1972 61.018C61.1972 58.5304 63.1873 56.4337 65.6394 56.4337C68.0915 56.4337 70.0816 58.4949 70.0816 61.018C70.0816 63.5412 68.056 65.6024 65.6394 65.6024Z" fill="#0000FF"/>
</svg>
