<svg width="40" height="40" viewBox="0 0 40 40" fill="none" xmlns="http://www.w3.org/2000/svg">
<g clip-path="url(#clip0_11536_2210)">
<path d="M31.667 23.3337V10.0003C31.667 8.16699 30.167 6.66699 28.3337 6.66699H5.00033C3.16699 6.66699 1.66699 8.16699 1.66699 10.0003V23.3337C1.66699 25.167 3.16699 26.667 5.00033 26.667H28.3337C30.167 26.667 31.667 25.167 31.667 23.3337ZM16.667 21.667C13.9003 21.667 11.667 19.4337 11.667 16.667C11.667 13.9003 13.9003 11.667 16.667 11.667C19.4337 11.667 21.667 13.9003 21.667 16.667C21.667 19.4337 19.4337 21.667 16.667 21.667ZM38.3337 11.667V30.0003C38.3337 31.8337 36.8337 33.3337 35.0003 33.3337H6.66699V30.0003H35.0003V11.667H38.3337Z" fill="#0000FF"/>
</g>
<defs>
<clipPath id="clip0_11536_2210">
<rect width="40" height="40" fill="white"/>
</clipPath>
</defs>
</svg>
