<svg width="40" height="40" viewBox="0 0 40 40" fill="none" xmlns="http://www.w3.org/2000/svg">
<g clip-path="url(#clip0_8050_3693)">
<path d="M31.667 23.3333V9.99996C31.667 8.16663 30.167 6.66663 28.3337 6.66663H5.00033C3.16699 6.66663 1.66699 8.16663 1.66699 9.99996V23.3333C1.66699 25.1666 3.16699 26.6666 5.00033 26.6666H28.3337C30.167 26.6666 31.667 25.1666 31.667 23.3333ZM16.667 21.6666C13.9003 21.6666 11.667 19.4333 11.667 16.6666C11.667 13.9 13.9003 11.6666 16.667 11.6666C19.4337 11.6666 21.667 13.9 21.667 16.6666C21.667 19.4333 19.4337 21.6666 16.667 21.6666ZM38.3337 11.6666V30C38.3337 31.8333 36.8337 33.3333 35.0003 33.3333H6.66699V30H35.0003V11.6666H38.3337Z" fill="#0000FF"/>
</g>
<defs>
<clipPath id="clip0_8050_3693">
<rect width="40" height="40" fill="white"/>
</clipPath>
</defs>
</svg>
