<svg width="45" height="45" viewBox="0 0 45 45" fill="none" xmlns="http://www.w3.org/2000/svg">
<path d="M27.0232 38.5429L27.0417 38.554C28.6385 39.5711 30.5346 40.013 32.4165 39.8066C34.2985 39.6003 36.0537 38.7581 37.3922 37.4191L38.5548 36.2547C39.0746 35.7348 39.3666 35.0297 39.3666 34.2946C39.3666 33.5594 39.0746 32.8543 38.5548 32.3344L33.655 27.4327C33.3975 27.1751 33.0918 26.9707 32.7553 26.8313C32.4188 26.6918 32.0581 26.62 31.6939 26.62C31.3297 26.62 30.969 26.6918 30.6325 26.8313C30.296 26.9707 29.9903 27.1751 29.7329 27.4327C29.2129 27.9525 28.5079 28.2445 27.7727 28.2445C27.0376 28.2445 26.3325 27.9525 25.8126 27.4327L17.9684 19.5922C17.7107 19.3347 17.5064 19.029 17.3669 18.6925C17.2275 18.356 17.1557 17.9954 17.1557 17.6311C17.1557 17.2669 17.2275 16.9062 17.3669 16.5698C17.5064 16.2333 17.7107 15.9276 17.9684 15.6701C18.4881 15.1502 18.7801 14.4451 18.7801 13.71C18.7801 12.9748 18.4881 12.2697 17.9684 11.7498L13.0667 6.84812C12.5468 6.32836 11.8417 6.03638 11.1065 6.03638C10.3714 6.03638 9.66632 6.32836 9.14641 6.84812L7.98197 8.01255C6.64304 9.35105 5.80083 11.1063 5.59448 12.9883C5.38814 14.8702 5.83002 16.7662 6.84711 18.3631L6.8582 18.3816C12.2302 26.3285 19.0753 33.1723 27.0232 38.5429V38.5429Z" stroke="#0000FF" stroke-width="2.5" stroke-linecap="round" stroke-linejoin="round"/>
</svg>
