<svg width="54" height="55" viewBox="0 0 54 55" fill="none" xmlns="http://www.w3.org/2000/svg">
<g clip-path="url(#clip0_3643_10575)">
<path d="M36 16.0547L25.875 29.5547L19.125 22.8047" stroke="#121212" stroke-width="3.375" stroke-linecap="round" stroke-linejoin="round"/>
<path d="M47.8125 22.8045C47.8117 18.9731 46.724 15.2205 44.6756 11.9826C42.6273 8.74465 39.7024 6.1543 36.2406 4.51235C32.7788 2.8704 28.9223 2.24424 25.1189 2.70659C21.3154 3.16894 17.7212 4.70082 14.7537 7.12433C11.7861 9.54784 9.56699 12.7635 8.35404 16.3979C7.14109 20.0322 6.98409 23.9361 7.90127 27.6561C8.81845 31.3762 10.7722 34.7597 13.5355 37.4136C16.2989 40.0676 19.7585 41.8832 23.5125 42.6495L27.5625 53.1795L31.6125 42.6495C36.1864 41.7158 40.2973 39.2305 43.2494 35.6142C46.2015 31.9979 47.8135 27.4727 47.8125 22.8045V22.8045Z" stroke="#121212" stroke-width="3.375" stroke-linecap="round" stroke-linejoin="round"/>
</g>
<defs>
<clipPath id="clip0_3643_10575">
<rect width="54" height="54" fill="white" transform="translate(0 0.867188)"/>
</clipPath>
</defs>
</svg>
