<svg width="29" height="32" viewBox="0 0 29 32" fill="none" xmlns="http://www.w3.org/2000/svg">
<path d="M20.7087 20.417C24.2692 18.4185 26.9683 16.8956 27.201 16.7772C27.9452 16.3726 28.7138 15.3017 27.201 14.4699C26.7125 14.2083 24.0827 12.7329 20.7087 10.8301L16.0312 15.6591L20.7087 20.4169V20.417Z" fill="#FFD900"/>
<path d="M16.034 15.6602L1.14062 31.0048C1.49021 31.0521 1.88487 30.9573 2.35018 30.6958C3.32708 30.1492 13.6831 24.3677 20.7114 20.4192L16.034 15.6602Z" fill="#F43249"/>
<path d="M16.0337 15.6593L20.7111 10.8541C20.7111 10.8541 3.39742 1.19476 2.34988 0.624556C1.95522 0.3856 1.51295 0.314619 1.11719 0.3856L16.0337 15.6593Z" fill="#00EE76"/>
<path d="M16.0335 15.6584L1.11697 0.384766C0.511594 0.527848 0 1.07461 0 2.1928V29.195C0 30.2185 0.395871 30.9557 1.14012 31.0267L16.0335 15.6584Z" fill="#00D3FF"/>
</svg>
