<svg width="70" height="19" viewBox="0 0 70 19" fill="none" xmlns="http://www.w3.org/2000/svg">
<g clip-path="url(#clip0_8710_313)">
<path d="M23.3101 3.76833H28.8587V6.03399H25.6271V14.2823H23.3101V3.76833ZM49.3851 12.0563H44.2984V3.76833H41.9814V14.2823H51.6997V3.76833H49.3827V12.0563H49.3851ZM37.9541 3.76833H40.2687V14.2823H37.9541V12.6513C37.0347 13.8997 35.8051 14.5273 34.2674 14.5343C32.7834 14.5343 31.5491 14.007 30.5667 12.9547C29.5844 11.9 29.0921 10.5887 29.0921 9.02299C29.0921 7.45733 29.5844 6.14599 30.5667 5.09366C31.5514 4.04366 32.7834 3.51633 34.2674 3.51633C35.7514 3.51633 37.0347 4.14166 37.9541 5.38999V3.76833ZM37.9541 9.02066C37.9541 8.08499 37.6437 7.30333 37.0277 6.67799C36.4094 6.05266 35.6394 5.74233 34.7224 5.74233C33.8054 5.74233 33.0121 6.05499 32.3891 6.67799C31.7684 7.30333 31.4581 8.08266 31.4581 9.02066C31.4581 9.95866 31.7684 10.738 32.3891 11.361C33.0097 11.9863 33.7867 12.2967 34.7224 12.2967C35.6581 12.2967 36.4094 11.984 37.0277 11.361C37.6461 10.7357 37.9541 9.95633 37.9541 9.02066ZM53.4147 3.76833V14.2823H55.7317V5.99433H60.5547V14.2823H62.8601V5.99433H67.6831V14.2823H70.0001V3.76833H53.4124H53.4147Z" fill="#151419"/>
<path d="M17.6447 3.801H14.6557C14.4317 3.801 14.2497 3.619 14.2497 3.395V0.406C14.2497 0.182 14.0677 0 13.8437 0H10.584C10.36 0 10.178 0.182 10.178 0.406V3.66567C10.178 3.88967 10.36 4.07167 10.584 4.07167H13.573C13.797 4.07167 13.979 4.25367 13.979 4.47767V7.46667C13.979 7.69067 14.161 7.87267 14.385 7.87267H17.6447C17.8687 7.87267 18.0507 7.69067 18.0507 7.46667V4.207C18.0507 3.983 17.8687 3.801 17.6447 3.801ZM0.406 7.87267H3.66567C3.88967 7.87267 4.07167 7.69067 4.07167 7.46667V4.47767C4.07167 4.25367 4.25367 4.07167 4.47767 4.07167H7.46667C7.69067 4.07167 7.87267 3.88967 7.87267 3.66567V0.406C7.87267 0.182 7.69067 0 7.46667 0H4.207C3.983 0 3.801 0.182 3.801 0.406V3.395C3.801 3.619 3.619 3.801 3.395 3.801H0.406C0.182 3.801 0 3.983 0 4.207V7.46667C0 7.69067 0.182 7.87267 0.406 7.87267ZM17.6447 10.178H14.385C14.161 10.178 13.979 10.36 13.979 10.584V13.573C13.979 13.797 13.797 13.979 13.573 13.979H10.584C10.36 13.979 10.178 14.161 10.178 14.385V17.6447C10.178 17.8687 10.36 18.0507 10.584 18.0507H13.8437C14.0677 18.0507 14.2497 17.8687 14.2497 17.6447V14.6557C14.2497 14.4317 14.4317 14.2497 14.6557 14.2497H17.6447C17.8687 14.2497 18.0507 14.0677 18.0507 13.8437V10.584C18.0507 10.36 17.8687 10.178 17.6447 10.178ZM7.46667 13.979H4.47767C4.25367 13.979 4.07167 13.797 4.07167 13.573V10.584C4.07167 10.36 3.88967 10.178 3.66567 10.178H0.406C0.182 10.178 0 10.36 0 10.584V13.8437C0 14.0677 0.182 14.2497 0.406 14.2497H3.395C3.619 14.2497 3.801 14.4317 3.801 14.6557V17.6447C3.801 17.8687 3.983 18.0507 4.207 18.0507H7.46667C7.69067 18.0507 7.87267 17.8687 7.87267 17.6447V14.385C7.87267 14.161 7.69067 13.979 7.46667 13.979ZM6.99067 7.39433V10.654C6.99067 10.878 7.17267 11.06 7.39667 11.06H10.6563C10.8803 11.06 11.0623 10.878 11.0623 10.654V7.39433C11.0623 7.17033 10.8803 6.98833 10.6563 6.98833H7.39667C7.17267 6.98833 6.99067 7.17033 6.99067 7.39433Z" fill="#0000FF"/>
</g>
<defs>
<clipPath id="clip0_8710_313">
<rect width="70" height="18.0507" fill="white"/>
</clipPath>
</defs>
</svg>
