<svg width="145" height="39" viewBox="0 0 145 39" fill="none" xmlns="http://www.w3.org/2000/svg">
<g clip-path="url(#clip0_3673_11308)">
<path d="M63.0659 8.83095V13.4292H56.5409V30.1669H51.8652V8.83095H63.0637H63.0659ZM82.0565 8.83095H86.7322V30.1669H82.0565V26.8561C80.2072 29.3908 77.7265 30.6559 74.6168 30.6783C71.6298 30.6783 69.1292 29.6151 67.1572 27.4707C65.1651 25.3241 64.1702 22.6684 64.1702 19.4787C64.1702 16.2891 65.1651 13.6535 67.1572 11.5092C69.1292 9.38274 71.6276 8.32178 74.6168 8.32178C77.6061 8.32178 80.2072 9.5891 82.0565 12.1238V8.83319V8.83095ZM80.1871 24.2407C81.4274 22.9734 82.0565 21.3786 82.0565 19.4787C82.0565 17.5789 81.4274 16.0042 80.1871 14.7369C78.9468 13.4696 77.383 12.837 75.5337 12.837C73.6844 12.837 72.0782 13.4696 70.8379 14.7369C69.5775 16.0042 68.9485 17.5766 68.9485 19.4787C68.9485 21.3808 69.5775 22.9734 70.8379 24.2407C72.0782 25.5081 73.642 26.1406 75.5337 26.1406C77.4254 26.1406 78.949 25.5058 80.1871 24.2407ZM104.313 8.83095H108.989V30.1669H89.3756V8.83095H94.0513V25.6516H104.315V8.83095H104.313ZM145 8.83095V30.1669H140.324V13.3485H130.589V30.1691H125.936V13.3485H116.201V30.1691H111.525V8.83095H145Z" fill="white"/>
<path d="M17.4535 8.77483H8.72677V0H17.4535V8.77483ZM8.72677 8.77483H0V17.5497H8.72677V8.77483ZM17.4535 39V30.2252H8.72677V39H17.4535ZM8.72677 30.2252V21.4503H0V30.2252H8.72677ZM21.3328 8.77483H30.0596V0H21.3328V8.77483ZM30.0596 17.5497H38.7864V8.77483H30.0596V17.5497ZM14.9328 15.015V23.7898H23.6595V15.015H14.9328ZM30.0596 39V30.2252H21.3328V39H30.0596ZM38.7864 30.2252V21.4503H30.0596V30.2252H38.7864Z" fill="#0000FF"/>
</g>
<defs>
<clipPath id="clip0_3673_11308">
<rect width="145" height="39" fill="white"/>
</clipPath>
</defs>
</svg>
