<svg width="300" height="233" viewBox="0 0 300 233" fill="none" xmlns="http://www.w3.org/2000/svg">
<g clip-path="url(#clip0_5873_1398)">
<path d="M9.38867 14.0749C10.12 13.672 10.8364 13.2839 11.5827 12.8958C14.6573 11.3287 17.926 12.5824 19.9558 13.7466" stroke="#0000FF" stroke-linecap="round" stroke-linejoin="round"/>
<path d="M39.5819 2.3437C37.567 1.16459 34.2834 -0.0742141 31.2088 1.49295C30.1193 2.04519 29.2088 2.56758 28.3879 3.03026C23.8804 5.77653 6.46254 15.3735 2.9103 18.4482C0.686418 20.0004 -0.552388 22.0004 2.88045 27.4034C6.32821 32.8064 19.8804 53.6422 21.8207 56.0452C23.6715 57.1198 27.8954 54.5377 29.0297 55.1944C30.2685 55.9109 37.9103 69.687 40.8655 71.3885C43.8207 73.09 48.0446 69.8362 49.761 70.8512C51.5073 71.8362 54.9402 79.5228 57.179 80.7915C59.3879 82.075 69.0596 78.2691 70.2834 78.9855C71.5222 79.7019 75.9551 87.6571 77.9252 88.8064C79.8954 89.9556 86.5969 86.9855 89.2984 88.5377C92.0148 90.1049 101.88 104.627 104.343 106.045C106.806 107.463 109.045 105.433 110.776 106.433C112.507 107.418 117.671 118.18 120.388 119.747L139.418 130.717C142.627 132.568 140.119 143.971 147.045 147.956C148.746 148.941 149.955 148.851 150.895 148.194" stroke="#0000FF" stroke-linecap="round" stroke-linejoin="round"/>
<path d="M41.6126 3.73181C41.6126 3.73181 40.8365 3.04524 39.5977 2.34375" stroke="#0000FF" stroke-linecap="round" stroke-linejoin="round"/>
<path d="M21.9856 15.1351C21.9856 15.1351 21.2095 14.4486 19.9707 13.7471" stroke="#0000FF" stroke-linecap="round" stroke-linejoin="round"/>
<path d="M155.582 140.747C153.164 142.598 153.358 146.643 150.672 148.359C150.776 148.299 150.866 148.255 150.955 148.195L159.776 143.075" stroke="#0000FF" stroke-linecap="round" stroke-linejoin="round"/>
<path d="M41.6113 3.73145C46.6113 6.62697 129.164 54.2837 153.671 68.4329" stroke="#0000FF" stroke-linecap="round" stroke-linejoin="round"/>
<path d="M21.9844 15.1348C28.4172 18.5079 138.059 82.8363 141.447 83.7616" stroke="#0000FF" stroke-linecap="round" stroke-linejoin="round"/>
<path d="M143.986 74.0756C144.837 73.7323 145.688 74.0308 146.509 74.4487C151.986 77.3293 152.345 84.1502 154.971 89.0905C156.3 91.8069 160.195 94.4786 162.942 93.1651" stroke="#0000FF" stroke-linecap="round" stroke-linejoin="round"/>
<path d="M175.016 78.3591C172.135 73.8665 172.016 66.4337 166.434 63.2247C165.075 62.4486 164.12 62.374 163.449 62.7621L153.672 68.4486L143.971 74.0904C143.971 74.0904 143.866 74.1501 143.822 74.18C141.419 75.568 142.568 82.8068 141.434 83.7919" stroke="#0000FF" stroke-linecap="round" stroke-linejoin="round"/>
<path d="M245.984 148.612C247.163 157.627 252.88 167.493 260.149 173" stroke="#0000FF" stroke-linecap="round" stroke-linejoin="round"/>
<path d="M230.999 145.717C230.089 146.254 229.357 146.941 228.745 147.732C228.521 147.985 228.327 148.269 228.148 148.568C227.865 149 227.611 149.478 227.402 149.971C226.656 151.672 226.253 153.597 226.148 155.418C226.133 155.821 226.104 156.224 226.104 156.642V156.687C226.104 157.03 226.104 157.374 226.118 157.717C226.118 157.762 226.118 157.821 226.133 157.881C226.133 158.165 226.148 158.448 226.178 158.747C226.357 160.851 226.79 163 227.447 165.15C227.865 166.538 228.372 167.926 228.969 169.269C229.014 169.374 229.044 169.463 229.104 169.568C229.238 169.866 229.387 170.165 229.506 170.463C229.611 170.627 229.686 170.806 229.76 170.971C229.835 171.135 229.924 171.314 229.999 171.478C230.223 171.911 230.447 172.329 230.671 172.747C231.014 173.314 231.342 173.911 231.701 174.463C233.521 177.418 235.701 180.135 238.104 182.374C238.641 182.866 239.178 183.344 239.73 183.791C240.014 184.03 240.298 184.239 240.581 184.448C241.133 184.881 241.715 185.284 242.298 185.657C242.581 185.836 242.865 186.015 243.163 186.194H243.208" stroke="#0000FF" stroke-linecap="round" stroke-linejoin="round"/>
<path d="M243.224 186.18H243.18C244.508 186.926 245.792 187.523 247.06 187.941C247.165 187.986 247.239 188.016 247.344 188.016C247.598 188.09 247.881 188.18 248.135 188.239C249.717 188.642 251.284 188.687 252.821 188.359C252.896 188.344 253.001 188.314 253.075 188.284C253.239 188.269 253.419 188.21 253.568 188.15C253.672 188.135 253.792 188.09 253.881 188.045C254.06 187.986 254.224 187.926 254.374 187.866C254.508 187.807 254.627 187.747 254.747 187.687C255.03 187.568 255.299 187.433 255.583 187.269" stroke="#0000FF" stroke-linecap="round" stroke-linejoin="round"/>
<path d="M178 76.4181C191.627 69.3285 205.179 72.4778 219.761 80.5375" stroke="#0000FF" stroke-linecap="round" stroke-linejoin="round"/>
<path d="M239.388 69.1195C223.029 59.6717 208.164 58.8807 197.283 65.209C195.208 66.4926 176.447 77.1195 175.029 78.3583" stroke="#0000FF" stroke-linecap="round" stroke-linejoin="round"/>
<path d="M226.119 156.642C226.089 167.508 233.746 180.747 243.194 186.194C254.134 192.612 261.985 185.224 260.149 173C258.731 162.896 252.149 152.06 243.313 146.821C233.448 140.985 225.94 146.642 226.119 156.627M219.746 80.5227C198.671 67.9108 174.433 69.2839 164.149 92.1197C162.418 94.0302 160.866 93.9108 157.985 92.3436C151.985 88.8063 153.463 76.8809 145.657 74.0749C140.313 72.2839 143.403 84.9257 140.791 83.7466C138.074 82.1794 27.776 18.4928 21.97 15.1346C21.9252 15.1048 21.1939 14.4481 19.9551 13.7466C17.9252 12.5824 14.6566 11.3287 11.5819 12.8958C8.44761 14.5227 4.76104 16.9257 2.9103 18.4331C0.686418 19.9854 -0.552388 21.9854 2.88045 27.3884C6.32821 32.7914 19.8804 53.6272 21.8207 56.0302C23.6715 57.1048 27.8954 54.5227 29.0297 55.1794C30.2685 55.8958 37.9103 69.672 40.8655 71.3734C43.8357 73.0899 48.0446 69.8212 49.761 70.8361C51.5073 71.8212 54.9402 79.5078 57.179 80.7764C59.3879 82.06 69.0596 78.254 70.2834 78.9705C71.5222 79.6869 75.9551 87.6421 77.9252 88.7914C79.9103 89.9406 86.5969 86.9705 89.2984 88.5227C92.0148 90.0899 101.88 104.612 104.343 106.03C106.806 107.448 109.045 105.418 110.776 106.418C112.507 107.403 117.671 118.164 120.388 119.732L139.418 130.702C142.627 132.553 140.119 143.956 147.045 147.941C152.731 151.224 152.671 142.836 155.567 140.717C160.552 139.284 165.537 155.105 165.418 154.836C175.239 183.224 195.866 210.597 218.94 223.911C239.866 235.538 257.597 235 270 220.12C298.791 179.045 258.507 101.418 219.746 80.5078V80.5227ZM260.373 176.403C260.268 183.657 257.119 188.359 250.866 188.538C237.015 187.478 226.224 169.567 226.104 156.627C225.925 146.657 233.418 140.985 243.298 146.821C253.074 152.717 260.149 165 260.373 176.403Z" stroke="#0000FF" stroke-linecap="round" stroke-linejoin="round"/>
<path d="M219.762 80.5377C256.015 101.986 284.687 155.03 278.762 198.538C277.001 210.09 271.657 221.851 261.269 227.866L280.896 216.463C292.18 209.911 299.209 195.762 299.269 175.642C299.389 135.986 272.687 88.3586 239.403 69.1348" stroke="#0000FF" stroke-linecap="round" stroke-linejoin="round"/>
</g>
<defs>
<clipPath id="clip0_5873_1398">
<rect width="300" height="232.806" fill="white"/>
</clipPath>
</defs>
</svg>
