<svg width="84" height="84" viewBox="0 0 84 84" fill="none" xmlns="http://www.w3.org/2000/svg">
<path d="M42.125 20.8125C37.0705 20.8125 33.2054 24.6777 33.2054 29.7321V32.7054H51.0446V29.7321C51.0446 24.6777 47.1795 20.8125 42.125 20.8125Z" fill="#0000FF"/>
<path d="M82.5607 9.51429C81.6688 8.91964 80.7768 8.62232 79.8848 9.21696C67.1 13.3795 54.0179 10.1089 44.2063 0.891964C43.017 -0.297321 41.233 -0.297321 40.0438 0.891964C30.2321 10.1089 17.15 13.3795 4.36518 9.21696C3.47321 8.62232 2.58125 8.91964 1.68929 9.51429C1.09464 10.1089 0.5 11.0009 0.5 11.8929C0.5 58.5723 21.0152 74.033 40.9357 82.9527C41.233 83.25 41.8277 83.25 42.125 83.25C42.4223 83.25 43.017 83.25 43.3143 82.9527C63.2348 74.033 83.75 58.5723 83.75 11.8929C83.75 11.0009 83.1554 10.1089 82.5607 9.51429ZM59.9643 53.5179C59.9643 58.5723 56.0991 62.4375 51.0446 62.4375H33.2054C28.1509 62.4375 24.2857 58.5723 24.2857 53.5179V41.625C24.2857 38.9491 25.475 36.5705 27.2589 35.0839V29.7321C27.2589 21.4071 33.8 14.8661 42.125 14.8661C50.45 14.8661 56.9911 21.4071 56.9911 29.7321V35.0839C58.775 36.5705 59.9643 38.9491 59.9643 41.625V53.5179Z" fill="#0000FF"/>
<path d="M42.125 41.625C40.3411 41.625 39.1518 42.8143 39.1518 44.5982V50.5446C39.1518 52.3286 40.3411 53.5179 42.125 53.5179C43.9089 53.5179 45.0982 52.3286 45.0982 50.5446V44.5982C45.0982 42.8143 43.9089 41.625 42.125 41.625Z" fill="#0000FF"/>
</svg>
