<svg width="449" height="379" viewBox="0 0 449 379" fill="none" xmlns="http://www.w3.org/2000/svg">
<g clip-path="url(#clip0_3542_10422)">
<path d="M27.7852 127.212V128.461L68.7309 104.668" stroke="#0000FF" stroke-width="2" stroke-linecap="round" stroke-linejoin="round"/>
<path d="M68.7309 104.668L27.7852 128.461L68.5964 152.024" stroke="#0000FF" stroke-width="2" stroke-linecap="round" stroke-linejoin="round"/>
<path d="M152.1 154.791H152.08" stroke="#0000FF" stroke-width="2" stroke-linecap="round" stroke-linejoin="round"/>
<path d="M129.446 197.553L92.209 219.194L92.2858 189.539" stroke="#0000FF" stroke-width="2" stroke-linecap="round" stroke-linejoin="round"/>
<path d="M125.988 146.182L92.3438 165.747L110.136 176.029L125.661 166.996" stroke="#0000FF" stroke-width="2" stroke-linecap="round" stroke-linejoin="round"/>
<path d="M164.801 129.134L164.705 129.076" stroke="#0000FF" stroke-width="2" stroke-linecap="round" stroke-linejoin="round"/>
<path d="M125.663 166.994L110.138 176.027C110.138 177.315 110.08 197.86 110.08 199.82L127.911 189.461" stroke="#0000FF" stroke-width="2" stroke-linecap="round" stroke-linejoin="round"/>
<path d="M67.7125 77.8184L27.7852 127.211" stroke="#0000FF" stroke-width="2" stroke-linecap="round" stroke-linejoin="round"/>
<path d="M77.9922 50.9305L61.2949 41.2825L129.006 1.92188L145.703 11.5698" stroke="#0000FF" stroke-width="2" stroke-linecap="round" stroke-linejoin="round"/>
<path d="M160.131 100.015V99.9958V99.9375" stroke="#0000FF" stroke-width="2" stroke-linecap="round" stroke-linejoin="round"/>
<path d="M160.151 93.6344L160.362 20.0254L92.6512 59.386L92.3438 165.744L125.911 146.218L125.988 146.179" stroke="#0000FF" stroke-width="2" stroke-linecap="round" stroke-linejoin="round"/>
<path d="M77.9922 50.931L92.6527 59.3874L160.364 20.0267L145.703 11.5703" stroke="#0000FF" stroke-width="2" stroke-linecap="round" stroke-linejoin="round"/>
<path d="M92.3444 165.746L110.137 176.009L110.06 199.802L92.2676 189.539L92.1907 219.194L68.1536 205.318L68.2305 175.663L1.92188 137.359L1.97952 114.335L61.2941 41.2832L92.6711 59.4068L92.3636 165.765L92.3444 165.746ZM68.5763 152.023L68.7877 78.4337L67.7117 77.8187L27.7843 127.212V128.461L68.5763 152.023Z" stroke="#0000FF" stroke-width="2" stroke-linecap="round" stroke-linejoin="round"/>
<path d="M194.794 249.445C183.362 255.384 169.969 242.546 163.917 232.59C151.101 211.065 149.275 180.929 152.081 154.791H152.1C153.483 145.374 155.559 133.939 164.705 129.076" stroke="#0000FF" stroke-width="2" stroke-linecap="round" stroke-linejoin="round"/>
<path d="M219.639 153.774C219.639 153.774 219.658 153.754 219.639 153.754" stroke="#0000FF" stroke-width="2" stroke-linecap="round" stroke-linejoin="round"/>
<path d="M295.611 138.666C295.131 136.705 294.631 134.784 294.074 132.881" stroke="#0000FF" stroke-width="2" stroke-linecap="round" stroke-linejoin="round"/>
<path d="M278.164 239.259L213.758 276.698C239.39 260.842 234.163 198.726 226.362 172.242" stroke="#0000FF" stroke-width="2" stroke-linecap="round" stroke-linejoin="round"/>
<path d="M144.412 102.783C156.094 96.5565 167.2 100.612 179.305 107.242C197.117 117.352 211.124 134.572 219.636 153.752C219.655 153.752 219.636 153.772 219.636 153.772C222.249 159.576 224.497 165.726 226.361 172.241" stroke="#0000FF" stroke-width="2" stroke-linecap="round" stroke-linejoin="round"/>
<path d="M294.073 132.881C286.214 105.513 270.939 81.7395 247.017 67.8825C235.892 61.4634 226.304 59.1378 218.311 61.0021C217.197 59.4069 162.743 92.5021 160.149 93.6361L144.932 102.477C144.759 102.573 144.586 102.669 144.413 102.784C130.944 111.26 127.6 128.423 125.986 146.181" stroke="#0000FF" stroke-width="2" stroke-linecap="round" stroke-linejoin="round"/>
<path d="M199.559 244.968C204.631 238.029 207.206 224.96 207.245 205.761C207.129 178.662 202.23 145.643 179.23 131.344C144.875 112.375 149.371 187.522 154.232 207.337C156.5 217.35 159.728 225.768 163.916 232.59C171.006 244.833 189.395 259.401 199.559 244.948M226.363 172.243C237.469 208.163 240.639 307.679 178.846 272.278C140.187 249.58 125.334 202.859 125.526 158.559C125.238 120.505 138.208 83.3736 179.326 107.244C203.248 121.101 218.504 144.855 226.382 172.243H226.363Z" stroke="#0000FF" stroke-width="2" stroke-linecap="round" stroke-linejoin="round"/>
<path d="M352.486 314.617H352.467" stroke="#0000FF" stroke-width="2" stroke-linecap="round" stroke-linejoin="round"/>
<path d="M338.306 322.861L338.268 331.279" stroke="#0000FF" stroke-width="2" stroke-linecap="round" stroke-linejoin="round"/>
<path d="M338.268 331.279C338.479 339.793 341.438 350.018 349.892 354.496C353.024 356.13 354.965 357.052 357.616 355.937" stroke="#0000FF" stroke-width="2" stroke-linecap="round" stroke-linejoin="round"/>
<path d="M268.019 190.672L268 199.09" stroke="#0000FF" stroke-width="2" stroke-linecap="round" stroke-linejoin="round"/>
<path d="M287.272 223.633C284.736 224.959 281.873 223.537 279.548 222.268C271.074 217.752 268.154 207.7 268 199.09" stroke="#0000FF" stroke-width="2" stroke-linecap="round" stroke-linejoin="round"/>
<path d="M342.551 311.6C339.227 313.964 338.516 318.057 338.305 322.862" stroke="#0000FF" stroke-width="2" stroke-linecap="round" stroke-linejoin="round"/>
<path d="M352.485 314.617H352.465" stroke="#0000FF" stroke-width="2" stroke-linecap="round" stroke-linejoin="round"/>
<path d="M268.02 190.673C268.269 185.849 268.923 181.756 272.266 179.334" stroke="#0000FF" stroke-width="2" stroke-linecap="round" stroke-linejoin="round"/>
<path d="M379.347 354.995C379.135 363.894 377.752 370.774 371.008 375.252L438.719 335.892C445.367 331.548 446.885 324.456 447.058 315.635" stroke="#0000FF" stroke-width="2" stroke-linecap="round" stroke-linejoin="round"/>
<path d="M447.078 307.217L447.059 315.635" stroke="#0000FF" stroke-width="2" stroke-linecap="round" stroke-linejoin="round"/>
<path d="M379.367 346.578L379.348 354.996" stroke="#0000FF" stroke-width="2" stroke-linecap="round" stroke-linejoin="round"/>
<path d="M376.637 183.369C376.656 188.328 375.964 192.556 374.504 196.015" stroke="#0000FF" stroke-width="2" stroke-linecap="round" stroke-linejoin="round"/>
<path d="M344.069 217.695L300.702 242.911C299.876 243.372 299.05 243.756 298.128 244.045C291.979 246.005 285.446 243.66 278.164 239.259" stroke="#0000FF" stroke-width="2" stroke-linecap="round" stroke-linejoin="round"/>
<path d="M308.927 222.73C308.715 231.59 307.351 238.471 300.703 242.91" stroke="#0000FF" stroke-width="2" stroke-linecap="round" stroke-linejoin="round"/>
<path d="M376.677 174.951L376.639 183.369" stroke="#0000FF" stroke-width="2" stroke-linecap="round" stroke-linejoin="round"/>
<path d="M308.966 214.312L308.928 222.73" stroke="#0000FF" stroke-width="2" stroke-linecap="round" stroke-linejoin="round"/>
<path d="M443.83 288.152C446.059 294.648 447.135 300.991 447.077 307.218" stroke="#0000FF" stroke-width="2" stroke-linecap="round" stroke-linejoin="round"/>
<path d="M379.366 346.579C379.386 340.083 378.252 333.644 376.119 327.494" stroke="#0000FF" stroke-width="2" stroke-linecap="round" stroke-linejoin="round"/>
<path d="M361.477 344.675C361.804 333.278 361.823 319.344 350.006 312.964C337.133 305.391 338.228 323.477 338.266 331.26C338.286 335.392 339.15 339.659 340.841 344.099C342.532 348.5 345.529 351.959 349.872 354.477C354.214 356.995 357.308 357.052 358.979 354.631C360.651 352.19 361.496 348.884 361.458 344.675M376.119 327.493C379.52 336.642 379.539 345.771 379.347 354.996C379.616 374.349 367.453 383.19 349.853 372.427C331.945 362.241 320.666 341.1 320.551 321.036V312.618C320.589 306.429 321.742 301.394 324.067 297.512C330.177 288.017 339.842 289.286 350.083 295.167C362.592 302.239 371.584 314.271 376.138 327.493H376.119Z" stroke="#0000FF" stroke-width="2" stroke-linecap="round" stroke-linejoin="round"/>
<path d="M443.831 288.152C439.277 274.929 430.304 262.898 417.776 255.826C411.531 252.212 406.209 250.752 401.809 251.386C399.926 251.655 398.216 252.232 396.717 253.096L329.006 292.457C335.961 288.959 341.61 290.574 350.065 295.186C362.458 302.182 371.546 314.213 376.119 327.493" stroke="#0000FF" stroke-width="2" stroke-linecap="round" stroke-linejoin="round"/>
<path d="M268.02 190.673C267.616 201.877 268.116 216.061 279.548 222.269C288.598 227.804 290.961 220.116 291.058 212.429C291.077 205.471 291.557 198.053 288.771 191.23C287.176 186.848 284.14 183.35 279.663 180.775C270.71 175.278 268.289 183.216 268.02 190.692M263.389 226.074C255.127 215.504 250.093 201.781 250.131 188.789V180.371C250.17 174.125 251.342 169.07 253.667 165.188C264.196 148.794 287.099 165.572 295.823 176.989C304.085 187.598 309.061 201.262 308.946 214.312V222.73C308.543 257.574 277.8 244.697 263.389 226.055V226.074Z" stroke="#0000FF" stroke-width="2" stroke-linecap="round" stroke-linejoin="round"/>
<path d="M376.677 174.951C376.677 154.791 365.418 133.803 347.433 123.598C341.188 119.985 335.866 118.505 331.466 119.101C329.544 119.37 327.815 119.946 326.297 120.83L295.612 138.666L259.239 159.826L258.586 160.191C265.58 156.655 271.248 158.365 279.722 162.959C297.687 173.145 308.966 194.132 308.966 214.312" stroke="#0000FF" stroke-width="2" stroke-linecap="round" stroke-linejoin="round"/>
<path d="M351.947 209.123L368.99 218.963L272.938 323.573L255.895 313.732L351.947 209.123Z" stroke="#0000FF" stroke-width="2" stroke-linecap="round" stroke-linejoin="round"/>
<path d="M351.947 209.122L419.659 169.762L436.702 179.602L368.99 218.963L351.947 209.122Z" stroke="#0000FF" stroke-width="2" stroke-linecap="round" stroke-linejoin="round"/>
<path d="M368.99 218.962L436.701 179.602L340.649 284.211L272.938 323.572L368.99 218.962Z" stroke="#0000FF" stroke-width="2" stroke-linecap="round" stroke-linejoin="round"/>
</g>
<defs>
<clipPath id="clip0_3542_10422">
<rect width="449" height="379" fill="white"/>
</clipPath>
</defs>
</svg>
