<svg width="269" height="448" viewBox="0 0 269 448" fill="none" xmlns="http://www.w3.org/2000/svg">
<g clip-path="url(#clip0_3542_10281)">
<path d="M1.05273 77.1426V369.913L134.496 446.949V154.19L1.05273 77.1426Z" stroke="#0000FF" stroke-width="2" stroke-linecap="round" stroke-linejoin="round"/>
<path d="M134.494 446.949L267.948 369.913V77.1426L134.494 154.19V446.949Z" stroke="#0000FF" stroke-width="2" stroke-linecap="round" stroke-linejoin="round"/>
<path d="M1.05273 77.1407L132.855 1.05078L267.949 77.1407L134.496 154.188L1.05273 77.1407Z" stroke="#0000FF" stroke-width="2" stroke-linecap="round" stroke-linejoin="round"/>
<path d="M27.7363 77.1409L134.495 15.5117L241.253 77.1409L134.495 138.781L27.7363 77.1409Z" stroke="#0000FF" stroke-width="2" stroke-linecap="round" stroke-linejoin="round"/>
<path d="M134.495 30.919V15.5117L27.7363 77.1409L40.9576 84.9234L134.495 30.919Z" stroke="#0000FF" stroke-width="2" stroke-linecap="round" stroke-linejoin="round"/>
<path d="M241.253 77.1409L134.494 15.5117V30.919L227.905 84.8498L241.253 77.1409Z" stroke="#0000FF" stroke-width="2" stroke-linecap="round" stroke-linejoin="round"/>
<path d="M27.7363 385.318V308.271L94.4631 346.795V423.842L27.7363 385.318Z" stroke="#0000FF" stroke-width="2" stroke-linecap="round" stroke-linejoin="round"/>
<path d="M34.0254 320.051V379.051L51.9272 389.378V330.084L34.0254 320.051Z" stroke="#0000FF" stroke-width="2" stroke-linecap="round" stroke-linejoin="round"/>
<path d="M67.7793 339.434V398.434L85.6706 408.761V349.467L67.7793 339.434Z" stroke="#0000FF" stroke-width="2" stroke-linecap="round" stroke-linejoin="round"/>
<path d="M59.8477 326.635V403.682" stroke="#0000FF" stroke-width="2" stroke-linecap="round" stroke-linejoin="round"/>
<path d="M14.3984 115.666V131.073L27.7354 138.782V123.375L14.3984 115.666Z" stroke="#0000FF" stroke-width="2" stroke-linecap="round" stroke-linejoin="round"/>
<path d="M35.1094 127.223V142.63L48.4568 150.339V134.932L35.1094 127.223Z" stroke="#0000FF" stroke-width="2" stroke-linecap="round" stroke-linejoin="round"/>
<path d="M55.8203 138.781V154.189L69.1678 161.897V146.48L55.8203 138.781Z" stroke="#0000FF" stroke-width="2" stroke-linecap="round" stroke-linejoin="round"/>
<path d="M76.5293 150.34V165.747L89.8767 173.446V158.038L76.5293 150.34Z" stroke="#0000FF" stroke-width="2" stroke-linecap="round" stroke-linejoin="round"/>
<path d="M97.2402 161.898V177.306L110.588 185.004V169.597L97.2402 161.898Z" stroke="#0000FF" stroke-width="2" stroke-linecap="round" stroke-linejoin="round"/>
<path d="M14.3984 146.963V162.37L27.7354 170.079V154.672L14.3984 146.963Z" stroke="#0000FF" stroke-width="2" stroke-linecap="round" stroke-linejoin="round"/>
<path d="M35.1094 158.521V173.929L48.4568 181.638V166.23L35.1094 158.521Z" stroke="#0000FF" stroke-width="2" stroke-linecap="round" stroke-linejoin="round"/>
<path d="M55.8203 170.08V185.487L69.1678 193.196V177.789L55.8203 170.08Z" stroke="#0000FF" stroke-width="2" stroke-linecap="round" stroke-linejoin="round"/>
<path d="M76.5293 181.639V197.046L89.8767 204.744V189.337L76.5293 181.639Z" stroke="#0000FF" stroke-width="2" stroke-linecap="round" stroke-linejoin="round"/>
<path d="M97.2402 193.195V208.603L110.588 216.301V200.894L97.2402 193.195Z" stroke="#0000FF" stroke-width="2" stroke-linecap="round" stroke-linejoin="round"/>
<path d="M14.3984 178.262V193.669L27.7354 201.378V185.971L14.3984 178.262Z" stroke="#0000FF" stroke-width="2" stroke-linecap="round" stroke-linejoin="round"/>
<path d="M35.1094 189.82V205.228L48.4568 212.937V197.529L35.1094 189.82Z" stroke="#0000FF" stroke-width="2" stroke-linecap="round" stroke-linejoin="round"/>
<path d="M55.8203 201.379V216.786L69.1678 224.495V209.088L55.8203 201.379Z" stroke="#0000FF" stroke-width="2" stroke-linecap="round" stroke-linejoin="round"/>
<path d="M76.5293 212.936V228.343L89.8767 236.052V220.634L76.5293 212.936Z" stroke="#0000FF" stroke-width="2" stroke-linecap="round" stroke-linejoin="round"/>
<path d="M97.2402 224.494V239.901L110.588 247.6V232.193L97.2402 224.494Z" stroke="#0000FF" stroke-width="2" stroke-linecap="round" stroke-linejoin="round"/>
<path d="M14.3984 209.561V224.968L27.7354 232.677V217.269L14.3984 209.561Z" stroke="#0000FF" stroke-width="2" stroke-linecap="round" stroke-linejoin="round"/>
<path d="M35.1094 221.119V236.526L48.4568 244.235V228.828L35.1094 221.119Z" stroke="#0000FF" stroke-width="2" stroke-linecap="round" stroke-linejoin="round"/>
<path d="M55.8203 232.676V248.083L69.1678 255.792V240.385L55.8203 232.676Z" stroke="#0000FF" stroke-width="2" stroke-linecap="round" stroke-linejoin="round"/>
<path d="M76.5293 244.234V259.642L89.8767 267.351V251.933L76.5293 244.234Z" stroke="#0000FF" stroke-width="2" stroke-linecap="round" stroke-linejoin="round"/>
<path d="M97.2402 255.793V271.2L110.588 278.899V263.491L97.2402 255.793Z" stroke="#0000FF" stroke-width="2" stroke-linecap="round" stroke-linejoin="round"/>
<path d="M14.3984 240.859V256.267L27.7354 263.976V248.568L14.3984 240.859Z" stroke="#0000FF" stroke-width="2" stroke-linecap="round" stroke-linejoin="round"/>
<path d="M35.1094 252.416V267.823L48.4568 275.532V260.125L35.1094 252.416Z" stroke="#0000FF" stroke-width="2" stroke-linecap="round" stroke-linejoin="round"/>
<path d="M55.8203 263.975V279.382L69.1678 287.091V271.684L55.8203 263.975Z" stroke="#0000FF" stroke-width="2" stroke-linecap="round" stroke-linejoin="round"/>
<path d="M76.5293 275.533V290.941L89.8767 298.649V283.232L76.5293 275.533Z" stroke="#0000FF" stroke-width="2" stroke-linecap="round" stroke-linejoin="round"/>
<path d="M97.2402 287.092V302.499L110.588 310.197V294.79L97.2402 287.092Z" stroke="#0000FF" stroke-width="2" stroke-linecap="round" stroke-linejoin="round"/>
<path d="M252.908 117.021V132.429L239.561 140.127V124.72L252.908 117.021Z" stroke="#0000FF" stroke-width="2" stroke-linecap="round" stroke-linejoin="round"/>
<path d="M232.187 128.58V143.987L218.85 151.686V136.278L232.187 128.58Z" stroke="#0000FF" stroke-width="2" stroke-linecap="round" stroke-linejoin="round"/>
<path d="M211.476 140.127V155.545L198.129 163.243V147.836L211.476 140.127Z" stroke="#0000FF" stroke-width="2" stroke-linecap="round" stroke-linejoin="round"/>
<path d="M190.767 151.686V167.093L177.42 174.802V159.394L190.767 151.686Z" stroke="#0000FF" stroke-width="2" stroke-linecap="round" stroke-linejoin="round"/>
<path d="M170.056 163.244V178.651L156.709 186.36V170.953L170.056 163.244Z" stroke="#0000FF" stroke-width="2" stroke-linecap="round" stroke-linejoin="round"/>
<path d="M252.908 148.32V163.728L239.561 171.437V156.019L252.908 148.32Z" stroke="#0000FF" stroke-width="2" stroke-linecap="round" stroke-linejoin="round"/>
<path d="M232.187 159.879V175.286L218.85 182.985V167.577L232.187 159.879Z" stroke="#0000FF" stroke-width="2" stroke-linecap="round" stroke-linejoin="round"/>
<path d="M211.476 171.436V186.843L198.129 194.541V179.134L211.476 171.436Z" stroke="#0000FF" stroke-width="2" stroke-linecap="round" stroke-linejoin="round"/>
<path d="M190.767 182.984V198.392L177.42 206.101V190.693L190.767 182.984Z" stroke="#0000FF" stroke-width="2" stroke-linecap="round" stroke-linejoin="round"/>
<path d="M170.056 194.543V209.95L156.709 217.659V202.252L170.056 194.543Z" stroke="#0000FF" stroke-width="2" stroke-linecap="round" stroke-linejoin="round"/>
<path d="M252.908 179.619V195.026L239.561 202.735V187.318L252.908 179.619Z" stroke="#0000FF" stroke-width="2" stroke-linecap="round" stroke-linejoin="round"/>
<path d="M232.187 191.176V206.583L218.85 214.281V198.874L232.187 191.176Z" stroke="#0000FF" stroke-width="2" stroke-linecap="round" stroke-linejoin="round"/>
<path d="M211.476 202.734V218.142L198.129 225.84V210.433L211.476 202.734Z" stroke="#0000FF" stroke-width="2" stroke-linecap="round" stroke-linejoin="round"/>
<path d="M190.767 214.283V229.701L177.42 237.399V221.992L190.767 214.283Z" stroke="#0000FF" stroke-width="2" stroke-linecap="round" stroke-linejoin="round"/>
<path d="M170.056 225.84V241.247L156.709 248.956V233.549L170.056 225.84Z" stroke="#0000FF" stroke-width="2" stroke-linecap="round" stroke-linejoin="round"/>
<path d="M252.908 210.916V226.323L239.561 234.032V218.614L252.908 210.916Z" stroke="#0000FF" stroke-width="2" stroke-linecap="round" stroke-linejoin="round"/>
<path d="M232.187 222.475V237.882L218.85 245.58V230.173L232.187 222.475Z" stroke="#0000FF" stroke-width="2" stroke-linecap="round" stroke-linejoin="round"/>
<path d="M211.476 234.033V249.44L198.129 257.139V241.732L211.476 234.033Z" stroke="#0000FF" stroke-width="2" stroke-linecap="round" stroke-linejoin="round"/>
<path d="M190.767 245.58V260.998L177.42 268.696V253.289L190.767 245.58Z" stroke="#0000FF" stroke-width="2" stroke-linecap="round" stroke-linejoin="round"/>
<path d="M170.056 257.139V272.546L156.709 280.255V264.848L170.056 257.139Z" stroke="#0000FF" stroke-width="2" stroke-linecap="round" stroke-linejoin="round"/>
<path d="M252.908 242.215V257.622L239.561 265.331V249.913L252.908 242.215Z" stroke="#0000FF" stroke-width="2" stroke-linecap="round" stroke-linejoin="round"/>
<path d="M232.187 253.773V269.181L218.85 276.879V261.472L232.187 253.773Z" stroke="#0000FF" stroke-width="2" stroke-linecap="round" stroke-linejoin="round"/>
<path d="M211.476 265.332V280.739L198.129 288.438V273.03L211.476 265.332Z" stroke="#0000FF" stroke-width="2" stroke-linecap="round" stroke-linejoin="round"/>
<path d="M190.767 276.879V292.297L177.42 299.995V284.588L190.767 276.879Z" stroke="#0000FF" stroke-width="2" stroke-linecap="round" stroke-linejoin="round"/>
<path d="M170.056 288.438V303.845L156.709 311.554V296.146L170.056 288.438Z" stroke="#0000FF" stroke-width="2" stroke-linecap="round" stroke-linejoin="round"/>
<path d="M187.873 416.134V354.715L227.905 331.389V393.018L187.873 416.134Z" stroke="#0000FF" stroke-width="2" stroke-linecap="round" stroke-linejoin="round"/>
<path d="M219.639 359.837V382.395L227.906 377.61V354.715L219.639 359.837Z" stroke="#0000FF" stroke-width="2" stroke-linecap="round" stroke-linejoin="round"/>
</g>
<defs>
<clipPath id="clip0_3542_10281">
<rect width="269" height="448" fill="white"/>
</clipPath>
</defs>
</svg>
