<svg width="157" height="106" viewBox="0 0 157 106" fill="none" xmlns="http://www.w3.org/2000/svg">
<g clip-path="url(#clip0_3643_10545)">
<path d="M85.1696 64.7613C98.6262 62.7777 152.64 -2.73904 156.928 0.27886C157.257 1.33313 155.09 3.88827 153.692 4.60208L152.768 4.4216C151.649 5.26308 155.906 1.14189 110.204 47.5309C91.2595 66.7605 86.5284 65.147 85.0969 66.0165C84.5877 69.3372 84.064 83.471 83.3766 89.5704C83.2791 89.719 83.1504 89.8446 82.9994 89.9384C82.8484 90.0322 82.6788 90.092 82.5024 90.1135C82.3259 90.135 82.1469 90.1178 81.9778 90.0631C81.8087 90.0084 81.6535 89.9174 81.5231 89.7966C80.1223 87.6498 79.1299 63.5266 78.1649 60.2867C77.8514 59.233 77.5329 58.1615 77.805 57.07C78.2845 56.6272 78.743 56.764 79.2716 57.0027C80.6293 58.9609 78.9068 62.1334 83.0317 64.6299C83.5447 64.0448 84.7736 41.5695 84.4078 40.492C83.7445 42.1621 83.0043 45.8889 81.0463 50.3355C78.5523 56.0001 77.6369 56.2733 75.3757 55.5336L73.8671 56.0524C72.6494 58.0456 71.6581 68.7511 65.405 63.8099C63.3539 74.1533 63.0042 75.1069 61.9999 75.4301C55.631 77.481 61.6066 28.6041 64.7218 23.3409C65.6248 21.8152 67.8263 21.8157 68.7029 24.6246C70.7664 31.2352 70.4986 43.7674 69.7767 44.8045L68.6792 44.7048C68.6792 41.8405 69.0833 24.9338 66.5488 23.4394C63.4077 23.9496 58.8901 68.5162 61.4967 72.9412C61.9013 72.9299 61.8997 72.632 61.9525 72.4235C64.8845 60.8157 64.058 58.3188 64.0106 53.814C63.9918 52.0195 64.5548 50.9868 66.1415 51.8493C67.6937 55.3079 64.1922 60.0707 67.885 64.3632C70.622 62.8704 71.4668 58.391 72.9194 52.7269L74.4188 52.4855C74.5928 51.7362 74.7555 51.0342 74.9328 50.273L76.131 50.3166C76.7162 51.6785 76.0847 53.1832 76.8169 54.6264C80.243 50.5537 82.7758 40.4581 83.9099 35.2697C86.863 21.7624 85.6087 7.60812 87.4271 1.45704C87.6352 1.27107 87.8997 1.16033 88.1782 1.14256C88.4567 1.12478 88.7331 1.20099 88.9632 1.35899C90.4389 4.17056 87.1399 24.3353 86.5387 37.1482C85.9196 50.4303 85.1028 61.8113 85.1696 64.7613ZM81.8734 82.0741L82.2694 82.142C82.6056 76.7429 82.9418 71.3444 83.2753 65.9847C81.6697 65.0527 81.4779 64.9822 80.5517 64.9849C80.9925 70.6834 81.433 76.3798 81.8734 82.0741Z" fill="#121212"/>
<path d="M45.5913 75.5615C37.5327 78.2654 29.2802 101.32 36.3846 104.188C47.8606 104.336 53.0501 53.5587 37.3393 41.7645C21.7567 30.0668 -7.56101 83.478 6.12562 96.5829C8.76241 99.1073 10.9978 96.7984 12.1643 97.3619C11.6147 98.4215 7.36912 99.6245 4.37889 96.2758C-11.2802 78.7405 31.097 11.3086 46.0805 51.9113C53.6934 72.5399 47.9301 105.171 36.9896 105.179C23.9059 105.188 38.1857 72.2398 45.5913 75.5615Z" fill="#121212"/>
<path d="M53.8828 75.3613C54.4582 74.8689 54.8612 74.8608 55.2535 75.3117C54.8004 75.9517 54.7998 75.9592 53.8828 75.3613Z" fill="#121212"/>
</g>
<defs>
<clipPath id="clip0_3643_10545">
<rect width="156" height="105" fill="white" transform="translate(0.960938 0.177734)"/>
</clipPath>
</defs>
</svg>
