<svg width="98" height="57" viewBox="0 0 98 57" fill="none" xmlns="http://www.w3.org/2000/svg">
<path d="M85.4986 10.1784C85.4986 15.7998 80.9415 20.3568 75.3202 20.3568C69.6988 20.3568 65.1418 15.7998 65.1418 10.1784C65.1418 4.55703 69.6988 0 75.3202 0C80.9415 0 85.4986 4.55703 85.4986 10.1784Z" fill="#0000FF"/>
<path d="M80.4256 33.0932L50.2976 7.98674C44.4165 3.08584 36.2831 1.89879 29.2467 4.91445L14.6252 11.1808C13.1625 11.8076 12.2141 13.2459 12.2141 14.8373C12.2141 17.5527 14.8743 19.4701 17.4503 18.6114L31.868 13.8055C34.794 12.8302 38.0199 13.5917 40.2007 15.7726L44.785 20.3568L23.3278 33.7674C23.9053 34.1107 24.4317 34.5182 24.9103 34.9775C26.1707 36.1875 27.0801 37.8087 27.5471 38.5558C28.4393 39.9832 29.2019 40.7136 30.965 40.7136C34.0557 40.7136 36.6851 38.7944 39.1475 37.1507C42.0474 35.2144 46.0056 32.5709 51.3219 32.5709C54.0884 32.5709 56.3769 33.2866 58.17 34.8236C59.7 36.1345 60.5309 37.8079 60.9963 38.7439C61.675 40.1074 61.9144 40.7136 63.536 40.7136C66.3131 40.7136 68.9619 39.3273 72.344 37.2464C74.0332 36.2066 75.7061 35.1318 77.4898 34.258C78.3843 33.8204 79.3679 33.4031 80.4256 33.0932Z" fill="#0000FF"/>
<path d="M95.462 56.5691C93.4524 57.5743 91.0087 56.7609 90.0019 54.7525C89.3969 53.6007 88.6335 52.5148 87.7781 51.5373C86.2098 49.7451 84.6989 48.8563 83.4629 48.8563C82.8253 48.8563 81.9483 49.0737 80.6418 49.7137C79.0943 50.4714 77.6461 51.4196 76.1816 52.3239C72.9478 54.314 68.4713 56.999 63.1061 56.999C60.3396 56.999 58.0511 56.2833 56.258 54.7468C54.9617 53.6357 54.1084 52.1851 53.3576 50.677C52.7245 49.4112 52.3459 48.8563 50.892 48.8563C47.8014 48.8563 45.1721 50.7756 42.7094 52.4192C39.8096 54.3559 35.8516 56.999 30.5352 56.999C27.7595 56.999 25.4927 56.2841 23.6557 54.9479C21.9261 53.6902 20.8811 52.0841 20.2123 51.0141C18.8731 48.8653 17.5499 48.6597 15.2518 49.741C13.9395 50.3587 12.5762 51.2214 11.3008 52.1488C9.77208 53.2607 8.29515 54.4772 6.94928 55.8074C5.35917 57.3956 2.78184 57.396 1.19247 55.8065C-0.397491 54.2167 -0.397491 51.6387 1.19247 50.0488C2.83631 48.4166 4.63997 46.9249 6.51145 45.5638C8.03507 44.4556 9.85253 43.2826 11.7846 42.3735C13.674 41.4843 15.9514 40.7136 18.3211 40.7136C20.9311 40.7136 22.9506 41.6516 24.4804 43.1202C25.5775 44.1734 26.4072 45.5353 26.912 46.3638C27.3413 47.0686 27.7665 47.8694 28.445 48.3629C28.7073 48.5534 29.2395 48.8563 30.5352 48.8563C33.1994 48.8563 35.2704 47.5922 38.4552 45.4689C42.242 42.9414 46.1965 40.7136 50.892 40.7136C53.6585 40.7136 55.947 41.4293 57.74 42.9659C59.27 44.2773 60.1014 45.9506 60.5664 46.8866C61.2251 48.2094 61.5667 48.8563 63.1061 48.8563C65.8836 48.8563 68.532 47.47 71.9141 45.3887C73.6033 44.3493 75.2762 43.2745 77.0598 42.4008C78.8704 41.5144 81.0469 40.7136 83.4629 40.7136C88.3338 40.7136 91.9122 43.8962 93.9063 46.1753C95.2104 47.6658 96.3613 49.3221 97.2713 51.0838C98.2582 53.04 97.4256 55.5875 95.462 56.5691Z" fill="#0000FF"/>
</svg>
