<svg width="25" height="24" viewBox="0 0 25 24" fill="none" xmlns="http://www.w3.org/2000/svg">
<g id="Social Media Icon/Twitter">
<path id="Twitter" d="M16.1324 3.60374V3.59985H17.1452L17.5153 3.67376C17.762 3.72175 17.986 3.78463 18.1872 3.86243C18.3885 3.94023 18.5833 4.031 18.7715 4.13473C18.9598 4.23846 19.1306 4.34415 19.2838 4.45177C19.4357 4.5581 19.5721 4.67091 19.6928 4.7902C19.8123 4.91079 19.9986 4.94191 20.2518 4.88356C20.505 4.82521 20.7777 4.74416 21.0698 4.64043C21.362 4.53671 21.6509 4.42001 21.9366 4.29033C22.2222 4.16066 22.3962 4.07833 22.4586 4.04332C22.5196 4.00702 22.5521 3.98757 22.5559 3.98497L22.5598 3.97913L22.5793 3.96941L22.5988 3.95968L22.6183 3.94996L22.6377 3.94023L22.6416 3.9344L22.6475 3.93051L22.6533 3.92662L22.6572 3.92078L22.6767 3.91495L22.6962 3.91105L22.6923 3.94023L22.6864 3.96941L22.6767 3.99858L22.6669 4.02776L22.6572 4.04721L22.6475 4.06666L22.6377 4.09583C22.6312 4.11528 22.6248 4.14121 22.6183 4.17363C22.6118 4.20605 22.5501 4.33571 22.4332 4.56263C22.3164 4.78956 22.1703 5.01971 21.995 5.25311C21.8197 5.48651 21.6626 5.66285 21.5237 5.78215C21.3834 5.90274 21.2906 5.98702 21.2451 6.035C21.1997 6.08427 21.1445 6.12965 21.0796 6.17116L20.9822 6.23534L20.9627 6.24507L20.9432 6.25479L20.9394 6.26063L20.9335 6.26452L20.9277 6.26841L20.9238 6.27424L20.9043 6.28397L20.8848 6.29369L20.8809 6.29953L20.8751 6.30342L20.8692 6.30731L20.8653 6.31314L20.8614 6.31898L20.8556 6.32287L20.8497 6.32676L20.8458 6.33259H20.9432L21.4886 6.21589C21.8522 6.13809 22.1995 6.04409 22.5306 5.93386L23.0565 5.75881L23.1149 5.73936L23.1441 5.72964L23.1636 5.71991L23.1831 5.71019L23.2026 5.70046L23.222 5.69074L23.261 5.6849L23.3 5.68101V5.71991L23.2902 5.7238L23.2805 5.72964L23.2766 5.73547L23.2707 5.73936L23.2649 5.74325L23.261 5.74909L23.2571 5.75492L23.2513 5.75881L23.2454 5.7627L23.2415 5.76854L23.2376 5.77437L23.2318 5.77826L23.222 5.79771L23.2123 5.81716L23.2065 5.82105C23.2039 5.82494 23.1214 5.93515 22.9591 6.15171C22.7968 6.36955 22.7092 6.47975 22.6962 6.48236C22.6832 6.48625 22.665 6.5057 22.6416 6.54071C22.6196 6.577 22.4819 6.72159 22.2287 6.97444C21.9755 7.2273 21.7275 7.45226 21.4847 7.64936C21.2406 7.84775 21.1172 8.09152 21.1147 8.38069C21.1108 8.66855 21.0958 8.99402 21.0698 9.35708C21.0439 9.72016 20.9952 10.1124 20.9238 10.5338C20.8524 10.9552 20.742 11.4318 20.5926 11.9634C20.4433 12.495 20.2615 13.0137 20.0473 13.5194C19.833 14.0251 19.6091 14.4789 19.3753 14.8809C19.1416 15.2829 18.9274 15.6233 18.7326 15.902C18.5378 16.1808 18.3398 16.4434 18.1385 16.6898C17.9373 16.9361 17.6828 17.2136 17.3751 17.5222C17.066 17.8295 16.8972 17.9981 16.8687 18.0279C16.8388 18.0565 16.7116 18.1628 16.4869 18.3469C16.2636 18.5323 16.0233 18.7177 15.7662 18.9032C15.5105 19.0873 15.2754 19.241 15.0612 19.3642C14.8469 19.4873 14.5885 19.628 14.286 19.7862C13.9848 19.9457 13.6588 20.0935 13.3082 20.2297C12.9577 20.3658 12.5876 20.4923 12.1981 20.609C11.8085 20.7257 11.432 20.8164 11.0684 20.8813C10.7048 20.9461 10.2926 21.0012 9.8316 21.0466L9.14017 21.1147V21.1244H7.87416V21.1147L7.70861 21.1049C7.59825 21.0985 7.50735 21.092 7.43593 21.0855C7.36453 21.079 7.09508 21.0433 6.62763 20.9785C6.16019 20.9137 5.79338 20.8488 5.52718 20.784C5.26101 20.7192 4.86496 20.596 4.33909 20.4145C3.81321 20.2329 3.36329 20.0494 2.98933 19.864C2.61668 19.6799 2.38295 19.5632 2.28816 19.5139C2.19467 19.4659 2.08949 19.4063 1.97263 19.335L1.79734 19.228L1.79346 19.2222L1.7876 19.2183L1.78175 19.2144L1.77786 19.2086L1.75838 19.1988L1.73891 19.1891L1.73503 19.1833L1.72917 19.1794L1.72332 19.1755L1.71943 19.1697L1.71555 19.1638L1.70969 19.1599H1.69995V19.121L1.71943 19.1249L1.73891 19.1308L1.82655 19.1405C1.88498 19.147 2.04405 19.1567 2.30374 19.1697C2.56344 19.1826 2.83936 19.1826 3.13151 19.1697C3.42367 19.1567 3.72233 19.1275 4.02745 19.0821C4.3326 19.0367 4.69292 18.9589 5.10843 18.8487C5.52395 18.7385 5.9057 18.6075 6.25369 18.4558C6.60039 18.3028 6.84708 18.1887 6.99382 18.1135C7.13924 18.0396 7.36127 17.9021 7.65992 17.7012L8.10789 17.3997L8.11178 17.3939L8.11762 17.39L8.12349 17.3861L8.12736 17.3802L8.13126 17.3744L8.1371 17.3705L8.14296 17.3666L8.14684 17.3608L8.16632 17.355L8.18579 17.3511L8.18969 17.3316L8.19553 17.3122L8.2014 17.3083L8.20527 17.3024L8.04946 17.2927C7.94558 17.2862 7.84495 17.2797 7.74756 17.2733C7.65018 17.2668 7.49761 17.2376 7.28985 17.1857C7.08211 17.1339 6.85812 17.0561 6.6179 16.9523C6.37769 16.8486 6.14396 16.7254 5.91672 16.5828C5.6895 16.4402 5.52524 16.3215 5.42395 16.2269C5.32398 16.1335 5.19413 16.0012 5.03441 15.8301C4.87601 15.6576 4.73836 15.4806 4.6215 15.2991C4.50464 15.1176 4.39298 14.9081 4.28652 14.6708L4.12484 14.3169L4.1151 14.2877L4.10536 14.2585L4.09952 14.2391L4.09562 14.2196L4.12484 14.2235L4.15405 14.2293L4.3683 14.2585C4.51115 14.278 4.73513 14.2844 5.04026 14.278C5.3454 14.2715 5.5564 14.2585 5.67326 14.2391C5.79012 14.2196 5.86154 14.2066 5.88751 14.2002L5.92646 14.1904L5.97515 14.1807L6.02385 14.171L6.02774 14.1651L6.03359 14.1613L6.03945 14.1574L6.04332 14.1515L6.00437 14.1418L5.96542 14.1321L5.92646 14.1224L5.88751 14.1126L5.84855 14.1029C5.82259 14.0964 5.77715 14.0835 5.71221 14.064C5.6473 14.0446 5.472 13.9732 5.18634 13.8501C4.90069 13.7269 4.67345 13.6069 4.50464 13.4902C4.33541 13.3732 4.17406 13.2452 4.02161 13.1071C3.86969 12.967 3.70285 12.7868 3.52105 12.5663C3.33927 12.3459 3.17697 12.0898 3.03413 11.7981C2.8913 11.5063 2.78418 11.2275 2.71276 10.9617C2.64162 10.6975 2.59469 10.4273 2.57254 10.1545L2.53746 9.74608L2.55694 9.74997L2.57642 9.75581L2.59589 9.76553L2.61537 9.77526L2.63485 9.78498L2.65432 9.79471L2.95622 9.93086C3.15749 10.0216 3.40744 10.0994 3.70608 10.1643C4.00474 10.2291 4.18327 10.2648 4.2417 10.2712L4.32935 10.281H4.50464L4.50076 10.2751L4.4949 10.2712L4.48906 10.2673L4.48516 10.2615L4.48129 10.2557L4.47542 10.2518L4.46958 10.2479L4.46569 10.2421L4.44621 10.2323L4.42673 10.2226L4.42286 10.2168L4.41699 10.2129L4.41115 10.209L4.40726 10.2032L4.38778 10.1934L4.3683 10.1837L4.36442 10.1779C4.36053 10.1753 4.30469 10.1338 4.1969 10.0534C4.09042 9.9717 3.97876 9.86603 3.8619 9.73636C3.74504 9.60668 3.62817 9.47053 3.51131 9.32791C3.39424 9.18495 3.28996 9.032 3.19968 8.87083C3.1088 8.70875 3.0127 8.50256 2.91142 8.25232C2.81145 8.00335 2.73549 7.75245 2.68354 7.4996C2.63161 7.24675 2.6024 6.99714 2.59589 6.75077C2.58941 6.50439 2.59589 6.29369 2.61537 6.11864C2.63485 5.94359 2.6738 5.74584 2.73223 5.52541C2.79066 5.30498 2.87508 5.07158 2.98543 4.82521L3.15099 4.45566L3.16073 4.42648L3.17047 4.39731L3.17633 4.39342L3.1802 4.38758L3.1841 4.38175L3.18994 4.37786L3.1958 4.38175L3.19968 4.38758L3.20358 4.39342L3.20942 4.39731L3.21528 4.4012L3.21916 4.40703L3.22305 4.41287L3.2289 4.41676L3.23863 4.43621L3.24837 4.45566L3.25424 4.45955L3.25811 4.46538L3.52105 4.75713C3.69634 4.95163 3.90411 5.16883 4.14432 5.40871C4.38454 5.64859 4.51763 5.77307 4.54359 5.78215C4.56958 5.79252 4.60203 5.82234 4.64098 5.87162C4.67993 5.91961 4.80979 6.03436 5.03052 6.21589C5.25127 6.39742 5.54017 6.60814 5.89725 6.84802C6.25434 7.0879 6.65036 7.32455 7.08534 7.55795C7.52034 7.79135 7.98779 8.00205 8.48769 8.19007C8.9876 8.3781 9.33819 8.50128 9.53945 8.55963C9.74072 8.61798 10.0848 8.69253 10.5717 8.7833C11.0587 8.87408 11.4255 8.93243 11.6722 8.95835C11.9189 8.98428 12.0877 8.9992 12.1786 9.00309L12.3149 9.00698L12.311 8.9778L12.3052 8.94863L12.2662 8.7055C12.2403 8.54342 12.2273 8.3165 12.2273 8.02475C12.2273 7.733 12.25 7.46394 12.2954 7.21757C12.3409 6.9712 12.4091 6.72159 12.5 6.46874C12.5909 6.21589 12.6798 6.01295 12.7668 5.85995C12.8551 5.70824 12.9707 5.53514 13.1135 5.34064C13.2563 5.14614 13.4414 4.94516 13.6686 4.73768C13.8958 4.53021 14.1555 4.34543 14.4477 4.18336C14.7398 4.02128 15.0093 3.89808 15.2559 3.8138C15.5027 3.72953 15.7104 3.67441 15.8792 3.64848C16.048 3.62255 16.1324 3.60763 16.1324 3.60374V3.60374Z" fill="white"/>
</g>
</svg>
