<svg width="115" height="87" viewBox="0 0 115 87" fill="none" xmlns="http://www.w3.org/2000/svg">
<path d="M0 28.75L8.42066 20.3293C21.4374 7.31264 39.0917 0 57.5 0C75.9086 0 93.5626 7.31271 106.579 20.3293L115 28.75L104.835 38.9146L96.4146 30.494C86.094 20.1732 72.0957 14.375 57.5 14.375C42.9042 14.375 28.9062 20.1732 18.5854 30.494L10.1646 38.9146L0 28.75Z" fill="#0000FF"/>
<path d="M30.4939 59.2437L20.3293 49.0793L28.75 40.6586C36.3749 33.0337 46.7166 28.75 57.5 28.75C68.2833 28.75 78.6247 33.0337 86.25 40.6587L94.6708 49.0793L84.5063 59.2437L76.0854 50.8235C71.1561 45.8941 64.4708 43.125 57.5 43.125C50.5291 43.125 43.8437 45.8941 38.9146 50.8235L30.4939 59.2437Z" fill="#0000FF"/>
<path d="M57.5 86.25L40.6586 69.409L49.0793 60.9881C51.3126 58.7549 54.3416 57.5 57.5 57.5C60.6584 57.5 63.6874 58.7549 65.9207 60.9881L74.3411 69.409L57.5 86.25Z" fill="#0000FF"/>
</svg>
